<?xml version="1.0" encoding="UTF-8" standalone="no"?>
<!DOCTYPE svg PUBLIC "-//W3C//DTD SVG 1.1//EN"
 "http://www.w3.org/Graphics/SVG/1.1/DTD/svg11.dtd">
<!-- Generated by graphviz version 2.30.1 (20201013.1554)
 -->
<!-- Title: TinyTPUSoC Pages: 1 -->
<svg width="1455pt" height="481pt"
 viewBox="0.00 0.00 1455.44 481.44" xmlns="http://www.w3.org/2000/svg" xmlns:xlink="http://www.w3.org/1999/xlink">
<g id="graph0" class="graph" transform="scale(1 1) rotate(0) translate(18.72 462.72)">
<title>TinyTPUSoC</title>
<polygon fill="#fbfaf6" stroke="#fbfaf6" points="-18.72,19.72 -18.72,-462.72 1437.72,-462.72 1437.72,19.72 -18.72,19.72"/>
<g id="clust2" class="cluster"><title>cluster_soc</title>
<path fill="#f6f1e8" stroke="#1f2937" stroke-width="1.5" d="M225,-82C225,-82 1205,-82 1205,-82 1211,-82 1217,-88 1217,-94 1217,-94 1217,-424 1217,-424 1217,-430 1211,-436 1205,-436 1205,-436 225,-436 225,-436 219,-436 213,-430 213,-424 213,-424 213,-94 213,-94 213,-88 219,-82 225,-82"/>
<text text-anchor="middle" x="272.5" y="-419.2" font-family="DejaVu Sans Bold" font-size="16.00">tpu_soc Top</text>
</g>
<g id="clust3" class="cluster"><title>cluster_frontend</title>
<path fill="#fff6de" stroke="#b7791f" stroke-width="1.3" d="M233,-90C233,-90 779,-90 779,-90 785,-90 791,-96 791,-102 791,-102 791,-380 791,-380 791,-386 785,-392 779,-392 779,-392 233,-392 233,-392 227,-392 221,-386 221,-380 221,-380 221,-102 221,-102 221,-96 227,-90 233,-90"/>
<text text-anchor="middle" x="306.5" y="-375.2" font-family="DejaVu Sans Bold" font-size="16.00">tpu_frontend_axil</text>
</g>
<g id="clust7" class="cluster"><title>cluster_core</title>
<path fill="#eaf1fb" stroke="#2c5282" stroke-width="1.3" d="M860,-192C860,-192 1197,-192 1197,-192 1203,-192 1209,-198 1209,-204 1209,-204 1209,-380 1209,-380 1209,-386 1203,-392 1197,-392 1197,-392 860,-392 860,-392 854,-392 848,-386 848,-380 848,-380 848,-204 848,-204 848,-198 854,-192 860,-192"/>
<text text-anchor="middle" x="894" y="-375.2" font-family="DejaVu Sans Bold" font-size="16.00">tpu Core</text>
</g>
<!-- host -->
<g id="node1" class="node"><title>host</title>
<path fill="#f7e7d0" stroke="#2e3a46" stroke-width="1.2" d="M138,-302C138,-302 18,-302 18,-302 12,-302 6,-296 6,-290 6,-290 6,-258 6,-258 6,-252 12,-246 18,-246 18,-246 138,-246 138,-246 144,-246 150,-252 150,-258 150,-258 150,-290 150,-290 150,-296 144,-302 138,-302"/>
<text text-anchor="middle" x="78" y="-277.6" font-family="DejaVu Sans" font-size="13.00">Host / PS</text>
<text text-anchor="middle" x="78" y="-263.6" font-family="DejaVu Sans" font-size="13.00">AXI&#45;Lite</text>
</g>
<!-- compiler -->
<g id="node2" class="node"><title>compiler</title>
<path fill="#f3efe4" stroke="#2e3a46" stroke-width="1.2" d="M138,-154C138,-154 18,-154 18,-154 12,-154 6,-148 6,-142 6,-142 6,-110 6,-110 6,-104 12,-98 18,-98 18,-98 138,-98 138,-98 144,-98 150,-104 150,-110 150,-110 150,-142 150,-142 150,-148 144,-154 138,-154"/>
<text text-anchor="middle" x="78" y="-129.6" font-family="DejaVu Sans" font-size="13.00">Compiler</text>
<text text-anchor="middle" x="78" y="-115.6" font-family="DejaVu Sans" font-size="13.00">schedule / imem</text>
</g>
<!-- note -->
<g id="node3" class="node"><title>note</title>
<path fill="#f1f5f9" stroke="#7b8794" stroke-width="1.1" stroke-dasharray="5,2" d="M143.5,-56C143.5,-56 12.5,-56 12.5,-56 6.5,-56 0.5,-50 0.5,-44 0.5,-44 0.5,-12 0.5,-12 0.5,-6 6.5,-0 12.5,-0 12.5,-0 143.5,-0 143.5,-0 149.5,-0 155.5,-6 155.5,-12 155.5,-12 155.5,-44 155.5,-44 155.5,-50 149.5,-56 143.5,-56"/>
<text text-anchor="middle" x="78" y="-31.6" font-family="DejaVu Sans" font-size="13.00">Prototype Boundary</text>
<text text-anchor="middle" x="78" y="-17.6" font-family="DejaVu Sans" font-size="13.00">No IRQ / DMA</text>
</g>
<!-- sys_obs -->
<g id="node4" class="node"><title>sys_obs</title>
<path fill="#e8f3eb" stroke="#2e3a46" stroke-width="1.2" d="M1406,-358C1406,-358 1286,-358 1286,-358 1280,-358 1274,-352 1274,-346 1274,-346 1274,-314 1274,-314 1274,-308 1280,-302 1286,-302 1286,-302 1406,-302 1406,-302 1412,-302 1418,-308 1418,-314 1418,-314 1418,-346 1418,-346 1418,-352 1412,-358 1406,-358"/>
<text text-anchor="middle" x="1346" y="-333.6" font-family="DejaVu Sans" font-size="13.00">Sys Outputs</text>
<text text-anchor="middle" x="1346" y="-319.6" font-family="DejaVu Sans" font-size="13.00">sys_data / valid</text>
</g>
<!-- vpu_obs -->
<g id="node5" class="node"><title>vpu_obs</title>
<path fill="#e8f3eb" stroke="#2e3a46" stroke-width="1.2" d="M1406,-258C1406,-258 1286,-258 1286,-258 1280,-258 1274,-252 1274,-246 1274,-246 1274,-214 1274,-214 1274,-208 1280,-202 1286,-202 1286,-202 1406,-202 1406,-202 1412,-202 1418,-208 1418,-214 1418,-214 1418,-246 1418,-246 1418,-252 1412,-258 1406,-258"/>
<text text-anchor="middle" x="1346" y="-233.6" font-family="DejaVu Sans" font-size="13.00">VPU Outputs</text>
<text text-anchor="middle" x="1346" y="-219.6" font-family="DejaVu Sans" font-size="13.00">vpu_data / valid</text>
</g>
<!-- axil -->
<g id="node6" class="node"><title>axil</title>
<path fill="#fffdf7" stroke="#2e3a46" stroke-width="1.2" d="M386.5,-309.5C386.5,-309.5 241.5,-309.5 241.5,-309.5 235.5,-309.5 229.5,-303.5 229.5,-297.5 229.5,-297.5 229.5,-250.5 229.5,-250.5 229.5,-244.5 235.5,-238.5 241.5,-238.5 241.5,-238.5 386.5,-238.5 386.5,-238.5 392.5,-238.5 398.5,-244.5 398.5,-250.5 398.5,-250.5 398.5,-297.5 398.5,-297.5 398.5,-303.5 392.5,-309.5 386.5,-309.5"/>
<text text-anchor="middle" x="314" y="-284.6" font-family="DejaVu Sans" font-size="13.00">AXI&#45;Lite / CSR</text>
<text text-anchor="middle" x="314" y="-270.6" font-family="DejaVu Sans" font-size="13.00">control status</text>
<text text-anchor="middle" x="314" y="-256.6" font-family="DejaVu Sans" font-size="13.00">UB / IMEM / params</text>
</g>
<!-- params -->
<g id="node7" class="node"><title>params</title>
<path fill="#fffdf7" stroke="#2e3a46" stroke-width="1.2" d="M575.5,-358C575.5,-358 484.5,-358 484.5,-358 478.5,-358 472.5,-352 472.5,-346 472.5,-346 472.5,-310 472.5,-310 472.5,-304 478.5,-298 484.5,-298 484.5,-298 575.5,-298 575.5,-298 581.5,-298 587.5,-304 587.5,-310 587.5,-310 587.5,-346 587.5,-346 587.5,-352 581.5,-358 575.5,-358"/>
<text text-anchor="middle" x="530" y="-338.6" font-family="DejaVu Sans" font-size="13.00">Params</text>
<text text-anchor="middle" x="530" y="-324.6" font-family="DejaVu Sans" font-size="13.00">leak inv lr</text>
<text text-anchor="middle" x="530" y="-310.6" font-family="DejaVu Sans" font-size="13.00">pathway</text>
</g>
<!-- seq -->
<g id="node8" class="node"><title>seq</title>
<path fill="#fffdf7" stroke="#2e3a46" stroke-width="1.2" d="M575.5,-256C575.5,-256 484.5,-256 484.5,-256 478.5,-256 472.5,-250 472.5,-244 472.5,-244 472.5,-208 472.5,-208 472.5,-202 478.5,-196 484.5,-196 484.5,-196 575.5,-196 575.5,-196 581.5,-196 587.5,-202 587.5,-208 587.5,-208 587.5,-244 587.5,-244 587.5,-250 581.5,-256 575.5,-256"/>
<text text-anchor="middle" x="530" y="-236.6" font-family="DejaVu Sans" font-size="13.00">Sequencer</text>
<text text-anchor="middle" x="530" y="-222.6" font-family="DejaVu Sans" font-size="13.00">start step</text>
<text text-anchor="middle" x="530" y="-208.6" font-family="DejaVu Sans" font-size="13.00">busy run</text>
</g>
<!-- imem -->
<g id="node9" class="node"><title>imem</title>
<path fill="#fffdf7" stroke="#2e3a46" stroke-width="1.2" d="M574,-154C574,-154 486,-154 486,-154 480,-154 474,-148 474,-142 474,-142 474,-110 474,-110 474,-104 480,-98 486,-98 486,-98 574,-98 574,-98 580,-98 586,-104 586,-110 586,-110 586,-142 586,-142 586,-148 580,-154 574,-154"/>
<text text-anchor="middle" x="530" y="-129.6" font-family="DejaVu Sans" font-size="13.00">Instr Mem</text>
<text text-anchor="middle" x="530" y="-115.6" font-family="DejaVu Sans" font-size="13.00">64 x 32</text>
</g>
<!-- cu -->
<g id="node10" class="node"><title>cu</title>
<path fill="#fffdf7" stroke="#2e3a46" stroke-width="1.2" d="M771,-258C771,-258 673,-258 673,-258 667,-258 661,-252 661,-246 661,-246 661,-210 661,-210 661,-204 667,-198 673,-198 673,-198 771,-198 771,-198 777,-198 783,-204 783,-210 783,-210 783,-246 783,-246 783,-252 777,-258 771,-258"/>
<text text-anchor="middle" x="722" y="-238.6" font-family="DejaVu Sans" font-size="13.00">Decode</text>
<text text-anchor="middle" x="722" y="-224.6" font-family="DejaVu Sans" font-size="13.00">switch ub_rd</text>
<text text-anchor="middle" x="722" y="-210.6" font-family="DejaVu Sans" font-size="13.00">ub_wr_host</text>
</g>
<!-- ctrl -->
<g id="node11" class="node"><title>ctrl</title>
<path fill="#fbfdff" stroke="#2e3a46" stroke-width="1.2" d="M974,-260C974,-260 872,-260 872,-260 866,-260 860,-254 860,-248 860,-248 860,-212 860,-212 860,-206 866,-200 872,-200 872,-200 974,-200 974,-200 980,-200 986,-206 986,-212 986,-212 986,-248 986,-248 986,-254 980,-260 974,-260"/>
<text text-anchor="middle" x="923" y="-240.6" font-family="DejaVu Sans" font-size="13.00">Core Ctrl</text>
<text text-anchor="middle" x="923" y="-226.6" font-family="DejaVu Sans" font-size="13.00">switch ub_ptr</text>
<text text-anchor="middle" x="923" y="-212.6" font-family="DejaVu Sans" font-size="13.00">params</text>
</g>
<!-- ub -->
<g id="node12" class="node"><title>ub</title>
<path fill="#fbfdff" stroke="#2e3a46" stroke-width="1.2" d="M977.5,-358C977.5,-358 868.5,-358 868.5,-358 862.5,-358 856.5,-352 856.5,-346 856.5,-346 856.5,-314 856.5,-314 856.5,-308 862.5,-302 868.5,-302 868.5,-302 977.5,-302 977.5,-302 983.5,-302 989.5,-308 989.5,-314 989.5,-314 989.5,-346 989.5,-346 989.5,-352 983.5,-358 977.5,-358"/>
<text text-anchor="middle" x="923" y="-333.6" font-family="DejaVu Sans" font-size="13.00">Unified Buffer</text>
<text text-anchor="middle" x="923" y="-319.6" font-family="DejaVu Sans" font-size="13.00">host load / data</text>
</g>
<!-- sys -->
<g id="node13" class="node"><title>sys</title>
<path fill="#fbfdff" stroke="#2e3a46" stroke-width="1.2" d="M1176,-358C1176,-358 1088,-358 1088,-358 1082,-358 1076,-352 1076,-346 1076,-346 1076,-314 1076,-314 1076,-308 1082,-302 1088,-302 1088,-302 1176,-302 1176,-302 1182,-302 1188,-308 1188,-314 1188,-314 1188,-346 1188,-346 1188,-352 1182,-358 1176,-358"/>
<text text-anchor="middle" x="1132" y="-333.6" font-family="DejaVu Sans" font-size="13.00">Systolic</text>
<text text-anchor="middle" x="1132" y="-319.6" font-family="DejaVu Sans" font-size="13.00">matmul</text>
</g>
<!-- vpu -->
<g id="node14" class="node"><title>vpu</title>
<path fill="#fbfdff" stroke="#2e3a46" stroke-width="1.2" d="M1188.5,-260C1188.5,-260 1075.5,-260 1075.5,-260 1069.5,-260 1063.5,-254 1063.5,-248 1063.5,-248 1063.5,-212 1063.5,-212 1063.5,-206 1069.5,-200 1075.5,-200 1075.5,-200 1188.5,-200 1188.5,-200 1194.5,-200 1200.5,-206 1200.5,-212 1200.5,-212 1200.5,-248 1200.5,-248 1200.5,-254 1194.5,-260 1188.5,-260"/>
<text text-anchor="middle" x="1132" y="-240.6" font-family="DejaVu Sans" font-size="13.00">VPU Train</text>
<text text-anchor="middle" x="1132" y="-226.6" font-family="DejaVu Sans" font-size="13.00">act loss grad</text>
<text text-anchor="middle" x="1132" y="-212.6" font-family="DejaVu Sans" font-size="13.00">param update</text>
</g>
<!-- host&#45;&gt;compiler -->
<!-- host&#45;&gt;axil -->
<g id="edge8" class="edge"><title>host:e&#45;&gt;axil:w</title>
<path fill="none" stroke="#7b4f1d" stroke-width="1.8" d="M150,-274C150,-274 221.8,-274 221.8,-274"/>
<polygon fill="#7b4f1d" stroke="#7b4f1d" points="221.8,-276.52 229,-274 221.8,-271.48 221.8,-276.52"/>
<text text-anchor="middle" x="174.4" y="-267.2" font-family="DejaVu Sans" font-size="8.50" fill="#7b4f1d">MMIO</text>
</g>
<!-- compiler&#45;&gt;note -->
<!-- compiler&#45;&gt;imem -->
<g id="edge9" class="edge"><title>compiler:e&#45;&gt;imem:w</title>
<path fill="none" stroke="#7b4f1d" stroke-width="1.7" d="M150,-116.667C150,-116.667 466.8,-116.667 466.8,-116.667"/>
<polygon fill="#7b4f1d" stroke="#7b4f1d" points="466.8,-119.187 474,-116.667 466.8,-114.147 466.8,-119.187"/>
<text text-anchor="middle" x="298.9" y="-109.867" font-family="DejaVu Sans" font-size="8.50" fill="#7b4f1d">instr</text>
</g>
<!-- sys_obs&#45;&gt;vpu_obs -->
<!-- axil&#45;&gt;params -->
<g id="edge10" class="edge"><title>axil:e&#45;&gt;params:w</title>
<path fill="none" stroke="#2563eb" stroke-width="1.5" d="M399,-303.625C399,-303.625 464.8,-303.625 464.8,-303.625"/>
<polygon fill="#2563eb" stroke="#2563eb" points="464.8,-306.145 472,-303.625 464.8,-301.105 464.8,-306.145"/>
</g>
<!-- axil&#45;&gt;seq -->
<g id="edge11" class="edge"><title>axil:e&#45;&gt;seq:w</title>
<path fill="none" stroke="#2563eb" stroke-width="1.5" d="M399,-247.375C399,-247.375 464.8,-247.375 464.8,-247.375"/>
<polygon fill="#2563eb" stroke="#2563eb" points="464.8,-249.895 472,-247.375 464.8,-244.855 464.8,-249.895"/>
<text text-anchor="middle" x="420.9" y="-240.575" font-family="DejaVu Sans" font-size="8.50" fill="#2563eb">CTRL</text>
</g>
<!-- axil&#45;&gt;imem -->
<g id="edge12" class="edge"><title>axil:s&#45;&gt;imem:w</title>
<path fill="none" stroke="#2563eb" stroke-width="1.5" d="M314,-238C314,-238 314,-135.333 314,-135.333 314,-135.333 466.8,-135.333 466.8,-135.333"/>
<polygon fill="#2563eb" stroke="#2563eb" points="466.8,-137.853 474,-135.333 466.8,-132.813 466.8,-137.853"/>
</g>
<!-- axil&#45;&gt;ub -->
<g id="edge13" class="edge"><title>axil:e&#45;&gt;ub:w</title>
<path fill="none" stroke="#c2410c" stroke-width="1.8" d="M399,-285.333C399,-285.333 892,-285.333 892,-285.333 892,-285.333 892,-322.8 892,-322.8"/>
<polygon fill="#c2410c" stroke="#c2410c" points="889.48,-322.8 892,-330 894.52,-322.8 889.48,-322.8"/>
<text text-anchor="middle" x="644.233" y="-278.533" font-family="DejaVu Sans" font-size="8.50" fill="#c2410c">host load</text>
</g>
<!-- params&#45;&gt;seq -->
<!-- params&#45;&gt;ctrl -->
<g id="edge17" class="edge"><title>params:e&#45;&gt;ctrl:nw</title>
<path fill="none" stroke="#2563eb" stroke-width="1.5" d="M588,-330C588,-330 820,-330 820,-330 820,-330 820,-238.667 820,-238.667 820,-238.667 852.8,-238.667 852.8,-238.667"/>
<polygon fill="#2563eb" stroke="#2563eb" points="852.8,-241.187 860,-238.667 852.8,-236.147 852.8,-241.187"/>
</g>
<!-- seq&#45;&gt;imem -->
<!-- seq&#45;&gt;cu -->
<g id="edge15" class="edge"><title>seq:e&#45;&gt;cu:w</title>
<path fill="none" stroke="#2563eb" stroke-width="1.5" d="M588,-227C588,-227 653.8,-227 653.8,-227"/>
<polygon fill="#2563eb" stroke="#2563eb" points="653.8,-229.52 661,-227 653.8,-224.48 653.8,-229.52"/>
</g>
<!-- imem&#45;&gt;seq -->
<g id="edge14" class="edge"><title>imem:n&#45;&gt;seq:s</title>
<path fill="none" stroke="#2563eb" stroke-width="1.5" d="M549,-154C549,-154 549,-188.8 549,-188.8"/>
<polygon fill="#2563eb" stroke="#2563eb" points="546.48,-188.8 549,-196 551.52,-188.8 546.48,-188.8"/>
</g>
<!-- cu&#45;&gt;ctrl -->
<g id="edge16" class="edge"><title>cu:e&#45;&gt;ctrl:w</title>
<path fill="none" stroke="#2563eb" stroke-width="1.5" d="M783,-219.333C783,-219.333 852.8,-219.333 852.8,-219.333"/>
<polygon fill="#2563eb" stroke="#2563eb" points="852.8,-221.853 860,-219.333 852.8,-216.813 852.8,-221.853"/>
<text text-anchor="middle" x="802.9" y="-212.533" font-family="DejaVu Sans" font-size="8.50" fill="#2563eb">control</text>
</g>
<!-- ctrl&#45;&gt;ub -->
<!-- ctrl&#45;&gt;ub -->
<g id="edge18" class="edge"><title>ctrl:e&#45;&gt;ub:w</title>
<path fill="none" stroke="#0f766e" stroke-width="1.5" d="M955,-230C955,-230 955,-322.8 955,-322.8"/>
<polygon fill="#0f766e" stroke="#0f766e" points="952.48,-322.8 955,-330 957.52,-322.8 952.48,-322.8"/>
</g>
<!-- ub&#45;&gt;sys -->
<g id="edge19" class="edge"><title>ub:e&#45;&gt;sys:w</title>
<path fill="none" stroke="#0f766e" stroke-width="1.5" d="M990,-344C990,-344 1068.8,-344 1068.8,-344"/>
<polygon fill="#0f766e" stroke="#0f766e" points="1068.8,-346.52 1076,-344 1068.8,-341.48 1068.8,-346.52"/>
<text text-anchor="middle" x="1020.4" y="-337.2" font-family="DejaVu Sans" font-size="8.50" fill="#0f766e">tiles</text>
</g>
<!-- ub&#45;&gt;vpu -->
<g id="edge20" class="edge"><title>ub:e&#45;&gt;vpu:w</title>
<path fill="none" stroke="#0f766e" stroke-width="1.5" d="M990,-316C990,-316 1067,-316 1067,-316 1067,-316 1067,-237.2 1067,-237.2"/>
<polygon fill="#0f766e" stroke="#0f766e" points="1069.52,-237.2 1067,-230 1064.48,-237.2 1069.52,-237.2"/>
<text text-anchor="middle" x="1046" y="-308.3" font-family="DejaVu Sans" font-size="8.50" fill="#0f766e">train data</text>
</g>
<!-- sys&#45;&gt;vpu -->
<!-- sys&#45;&gt;vpu -->
<g id="edge21" class="edge"><title>sys:s&#45;&gt;vpu:n</title>
<path fill="none" stroke="#0f766e" stroke-width="1.5" d="M1151,-302C1151,-302 1151,-267.2 1151,-267.2"/>
<polygon fill="#0f766e" stroke="#0f766e" points="1153.52,-267.2 1151,-260 1148.48,-267.2 1153.52,-267.2"/>
</g>
<!-- sys&#45;&gt;sys_obs -->
<g id="edge24" class="edge"><title>sys:e&#45;&gt;sys_obs:w</title>
<path fill="none" stroke="#15803d" stroke-width="1.7" d="M1188,-330C1188,-330 1266.8,-330 1266.8,-330"/>
<polygon fill="#15803d" stroke="#15803d" points="1266.8,-332.52 1274,-330 1266.8,-327.48 1266.8,-332.52"/>
</g>
<!-- vpu&#45;&gt;ub -->
<g id="edge22" class="edge"><title>vpu:w&#45;&gt;ub:s</title>
<path fill="none" stroke="#c2410c" stroke-width="1.5" d="M1070,-230C1070,-230 1070,-330 1070,-330 1070,-330 930.2,-330 930.2,-330"/>
<polygon fill="#c2410c" stroke="#c2410c" points="930.2,-327.48 923,-330 930.2,-332.52 930.2,-327.48"/>
</g>
<!-- vpu&#45;&gt;seq -->
<g id="edge23" class="edge"><title>vpu:w&#45;&gt;seq:n</title>
<path fill="none" stroke="#15803d" stroke-width="1.5" stroke-dasharray="5,2" d="M1073,-230C1073,-230 1073,-272.667 1073,-272.667 1073,-272.667 550,-272.667 550,-272.667 550,-272.667 550,-263.2 550,-263.2"/>
<polygon fill="#15803d" stroke="#15803d" points="552.52,-263.2 550,-256 547.48,-263.2 552.52,-263.2"/>
<text text-anchor="middle" x="817.1" y="-265.867" font-family="DejaVu Sans" font-size="8.50" fill="#15803d">done</text>
</g>
<!-- vpu&#45;&gt;vpu_obs -->
<g id="edge25" class="edge"><title>vpu:e&#45;&gt;vpu_obs:w</title>
<path fill="none" stroke="#15803d" stroke-width="1.7" d="M1201,-230C1201,-230 1266.8,-230 1266.8,-230"/>
<polygon fill="#15803d" stroke="#15803d" points="1266.8,-232.52 1274,-230 1266.8,-227.48 1266.8,-232.52"/>
</g>
</g>
</svg>
