<?xml version="1.0" encoding="UTF-8" standalone="no"?>
<!DOCTYPE svg PUBLIC "-//W3C//DTD SVG 1.1//EN"
 "http://www.w3.org/Graphics/SVG/1.1/DTD/svg11.dtd">
<!-- Generated by graphviz version 2.30.1 (20201013.1554)
 -->
<!-- Title: TinyTPUProjectArch16x9_ZH Pages: 1 -->
<svg width="960pt" height="125pt"
 viewBox="0.00 0.00 960.00 124.55" xmlns="http://www.w3.org/2000/svg" xmlns:xlink="http://www.w3.org/1999/xlink">
<g id="graph0" class="graph" transform="scale(0.362138 0.362138) rotate(0) translate(12.96 330.96)">
<title>TinyTPUProjectArch16x9_ZH</title>
<polygon fill="#f8f6f1" stroke="#f8f6f1" points="-12.96,13.96 -12.96,-330.96 2638.96,-330.96 2638.96,13.96 -12.96,13.96"/>
<g id="clust2" class="cluster"><title>cluster_sw</title>
<path fill="#fff4df" stroke="#c58a23" stroke-width="1.25" d="M1008,-215C1008,-215 1744,-215 1744,-215 1750,-215 1756,-221 1756,-227 1756,-227 1756,-298 1756,-298 1756,-304 1750,-310 1744,-310 1744,-310 1008,-310 1008,-310 1002,-310 996,-304 996,-298 996,-298 996,-227 996,-227 996,-221 1002,-215 1008,-215"/>
<text text-anchor="middle" x="1055.5" y="-294.8" font-family="WenQuanYi Zen Hei" font-size="14.00">1. 软件与驱动层</text>
</g>
<g id="clust4" class="cluster"><title>cluster_soc</title>
<path fill="#eaf2fd" stroke="#2b6cb0" stroke-width="1.25" d="M942,-112C942,-112 1768,-112 1768,-112 1774,-112 1780,-118 1780,-124 1780,-124 1780,-195 1780,-195 1780,-201 1774,-207 1768,-207 1768,-207 942,-207 942,-207 936,-207 930,-201 930,-195 930,-195 930,-124 930,-124 930,-118 936,-112 942,-112"/>
<text text-anchor="middle" x="1004.5" y="-191.8" font-family="WenQuanYi Zen Hei" font-size="14.00">2. SoC 控制与执行层</text>
</g>
<g id="clust6" class="cluster"><title>cluster_core</title>
<path fill="#e7f6f1" stroke="#0f766e" stroke-width="1.25" d="M1054,-9C1054,-9 1674,-9 1674,-9 1680,-9 1686,-15 1686,-21 1686,-21 1686,-92 1686,-92 1686,-98 1680,-104 1674,-104 1674,-104 1054,-104 1054,-104 1048,-104 1042,-98 1042,-92 1042,-92 1042,-21 1042,-21 1042,-15 1048,-9 1054,-9"/>
<text text-anchor="middle" x="1094.5" y="-88.8" font-family="WenQuanYi Zen Hei" font-size="14.00">3. 计算核心层</text>
</g>
<g id="clust8" class="cluster"><title>cluster_verify</title>
<path fill="#f2ebff" stroke="#7c3aed" stroke-width="1.25" d="M1706,-9C1706,-9 2605,-9 2605,-9 2611,-9 2617,-15 2617,-21 2617,-21 2617,-92 2617,-92 2617,-98 2611,-104 2605,-104 2605,-104 1706,-104 1706,-104 1700,-104 1694,-98 1694,-92 1694,-92 1694,-21 1694,-21 1694,-15 1700,-9 1706,-9"/>
<text text-anchor="middle" x="1753.5" y="-88.8" font-family="WenQuanYi Zen Hei" font-size="14.00">4. 验证与结果层</text>
</g>
<!-- title -->
<g id="node1" class="node"><title>title</title>
<path fill="#efe4cf" stroke="#8b6b3f" stroke-width="1.3" d="M334,-277C334,-277 12,-277 12,-277 6,-277 0,-271 0,-265 0,-265 0,-237 0,-237 0,-231 6,-225 12,-225 12,-225 334,-225 334,-225 340,-225 346,-231 346,-237 346,-237 346,-265 346,-265 346,-271 340,-277 334,-277"/>
<text text-anchor="middle" x="173" y="-245.7" font-family="WenQuanYi Zen Hei" font-size="21.00">TinyTPU AXI&#45;Lite SoC 整体架构图</text>
</g>
<!-- subtitle -->
<g id="node2" class="node"><title>subtitle</title>
<path fill="#f5efe3" stroke="#b38c54" d="M776,-269.5C776,-269.5 382,-269.5 382,-269.5 376,-269.5 370,-263.5 370,-257.5 370,-257.5 370,-244.5 370,-244.5 370,-238.5 376,-232.5 382,-232.5 382,-232.5 776,-232.5 776,-232.5 782,-232.5 788,-238.5 788,-244.5 788,-244.5 788,-257.5 788,-257.5 788,-263.5 782,-269.5 776,-269.5"/>
<text text-anchor="middle" x="579" y="-248.2" font-family="WenQuanYi Zen Hei" font-size="11.00">目标：把裸 RTL tiny&#45;tpu 补成可控、可验证、可收敛的 SoC 原型</text>
</g>
<!-- note -->
<g id="node3" class="node"><title>note</title>
<path fill="#f1f5f9" stroke="#7b8794" stroke-dasharray="5,2" d="M968,-275.5C968,-275.5 824,-275.5 824,-275.5 818,-275.5 812,-269.5 812,-263.5 812,-263.5 812,-238.5 812,-238.5 812,-232.5 818,-226.5 824,-226.5 824,-226.5 968,-226.5 968,-226.5 974,-226.5 980,-232.5 980,-238.5 980,-238.5 980,-263.5 980,-263.5 980,-269.5 974,-275.5 968,-275.5"/>
<text text-anchor="middle" x="896" y="-259.5" font-family="WenQuanYi Zen Hei" font-size="10.00">当前边界</text>
<text text-anchor="middle" x="896" y="-248.5" font-family="WenQuanYi Zen Hei" font-size="10.00">无 DMA / IRQ</text>
<text text-anchor="middle" x="896" y="-237.5" font-family="WenQuanYi Zen Hei" font-size="10.00">聚焦 AXI&#45;Lite + IMEM + 验证闭环</text>
</g>
<!-- spec -->
<g id="node4" class="node"><title>spec</title>
<path fill="#fffdfa" stroke="#334155" stroke-width="1.15" d="M1118,-278.5C1118,-278.5 1016,-278.5 1016,-278.5 1010,-278.5 1004,-272.5 1004,-266.5 1004,-266.5 1004,-235.5 1004,-235.5 1004,-229.5 1010,-223.5 1016,-223.5 1016,-223.5 1118,-223.5 1118,-223.5 1124,-223.5 1130,-229.5 1130,-235.5 1130,-235.5 1130,-266.5 1130,-266.5 1130,-272.5 1124,-278.5 1118,-278.5"/>
<text text-anchor="middle" x="1067" y="-260.9" font-family="WenQuanYi Zen Hei" font-size="12.00">模型规格</text>
<text text-anchor="middle" x="1067" y="-247.9" font-family="WenQuanYi Zen Hei" font-size="12.00">2&#45;layer MLP / XOR</text>
<text text-anchor="middle" x="1067" y="-234.9" font-family="WenQuanYi Zen Hei" font-size="12.00">Q8.8 定点</text>
</g>
<!-- sched -->
<g id="node5" class="node"><title>sched</title>
<path fill="#f3efe4" stroke="#334155" stroke-width="1.15" d="M1266,-278.5C1266,-278.5 1166,-278.5 1166,-278.5 1160,-278.5 1154,-272.5 1154,-266.5 1154,-266.5 1154,-235.5 1154,-235.5 1154,-229.5 1160,-223.5 1166,-223.5 1166,-223.5 1266,-223.5 1266,-223.5 1272,-223.5 1278,-229.5 1278,-235.5 1278,-235.5 1278,-266.5 1278,-266.5 1278,-272.5 1272,-278.5 1266,-278.5"/>
<text text-anchor="middle" x="1216" y="-260.9" font-family="WenQuanYi Zen Hei" font-size="12.00">调度与编码</text>
<text text-anchor="middle" x="1216" y="-247.9" font-family="WenQuanYi Zen Hei" font-size="12.00">scheduler.py</text>
<text text-anchor="middle" x="1216" y="-234.9" font-family="WenQuanYi Zen Hei" font-size="12.00">encode_instrs.py</text>
</g>
<!-- artifact -->
<g id="node6" class="node"><title>artifact</title>
<path fill="#fffdfa" stroke="#334155" stroke-width="1.15" d="M1405.25,-278.5C1405.25,-278.5 1314.75,-278.5 1314.75,-278.5 1308.75,-278.5 1302.75,-272.5 1302.75,-266.5 1302.75,-266.5 1302.75,-235.5 1302.75,-235.5 1302.75,-229.5 1308.75,-223.5 1314.75,-223.5 1314.75,-223.5 1405.25,-223.5 1405.25,-223.5 1411.25,-223.5 1417.25,-229.5 1417.25,-235.5 1417.25,-235.5 1417.25,-266.5 1417.25,-266.5 1417.25,-272.5 1411.25,-278.5 1405.25,-278.5"/>
<text text-anchor="middle" x="1360" y="-260.9" font-family="WenQuanYi Zen Hei" font-size="12.00">编译产物</text>
<text text-anchor="middle" x="1360" y="-247.9" font-family="WenQuanYi Zen Hei" font-size="12.00">schedule.json</text>
<text text-anchor="middle" x="1360" y="-234.9" font-family="WenQuanYi Zen Hei" font-size="12.00">imem.hex</text>
</g>
<!-- cocotb -->
<g id="node7" class="node"><title>cocotb</title>
<path fill="#fffdfa" stroke="#334155" stroke-width="1.15" d="M1735.25,-278.5C1735.25,-278.5 1602.75,-278.5 1602.75,-278.5 1596.75,-278.5 1590.75,-272.5 1590.75,-266.5 1590.75,-266.5 1590.75,-235.5 1590.75,-235.5 1590.75,-229.5 1596.75,-223.5 1602.75,-223.5 1602.75,-223.5 1735.25,-223.5 1735.25,-223.5 1741.25,-223.5 1747.25,-229.5 1747.25,-235.5 1747.25,-235.5 1747.25,-266.5 1747.25,-266.5 1747.25,-272.5 1741.25,-278.5 1735.25,-278.5"/>
<text text-anchor="middle" x="1669" y="-260.9" font-family="WenQuanYi Zen Hei" font-size="12.00">cocotb + NumPy</text>
<text text-anchor="middle" x="1669" y="-247.9" font-family="WenQuanYi Zen Hei" font-size="12.00">AXI master / scoreboard</text>
<text text-anchor="middle" x="1669" y="-234.9" font-family="WenQuanYi Zen Hei" font-size="12.00">Q8.8 参考模型</text>
</g>
<!-- vcs -->
<g id="node8" class="node"><title>vcs</title>
<path fill="#fffdfa" stroke="#334155" stroke-width="1.15" d="M1554.25,-278.5C1554.25,-278.5 1453.75,-278.5 1453.75,-278.5 1447.75,-278.5 1441.75,-272.5 1441.75,-266.5 1441.75,-266.5 1441.75,-235.5 1441.75,-235.5 1441.75,-229.5 1447.75,-223.5 1453.75,-223.5 1453.75,-223.5 1554.25,-223.5 1554.25,-223.5 1560.25,-223.5 1566.25,-229.5 1566.25,-235.5 1566.25,-235.5 1566.25,-266.5 1566.25,-266.5 1566.25,-272.5 1560.25,-278.5 1554.25,-278.5"/>
<text text-anchor="middle" x="1504" y="-260.9" font-family="WenQuanYi Zen Hei" font-size="12.00">directed bench</text>
<text text-anchor="middle" x="1504" y="-247.9" font-family="WenQuanYi Zen Hei" font-size="12.00">波形 / 定向 debug</text>
<text text-anchor="middle" x="1504" y="-234.9" font-family="WenQuanYi Zen Hei" font-size="12.00">H1 问题复现</text>
</g>
<!-- host -->
<g id="node9" class="node"><title>host</title>
<path fill="#f7e7d0" stroke="#334155" stroke-width="1.15" d="M1320,-174C1320,-174 1240,-174 1240,-174 1234,-174 1228,-168 1228,-162 1228,-162 1228,-134 1228,-134 1228,-128 1234,-122 1240,-122 1240,-122 1320,-122 1320,-122 1326,-122 1332,-128 1332,-134 1332,-134 1332,-162 1332,-162 1332,-168 1326,-174 1320,-174"/>
<text text-anchor="middle" x="1280" y="-151.4" font-family="WenQuanYi Zen Hei" font-size="12.00">Host / PS</text>
<text text-anchor="middle" x="1280" y="-138.4" font-family="WenQuanYi Zen Hei" font-size="12.00">AXI&#45;Lite MMIO</text>
</g>
<!-- axil -->
<g id="node10" class="node"><title>axil</title>
<path fill="#fffdfa" stroke="#334155" stroke-width="1.15" d="M1466,-175.5C1466,-175.5 1368,-175.5 1368,-175.5 1362,-175.5 1356,-169.5 1356,-163.5 1356,-163.5 1356,-132.5 1356,-132.5 1356,-126.5 1362,-120.5 1368,-120.5 1368,-120.5 1466,-120.5 1466,-120.5 1472,-120.5 1478,-126.5 1478,-132.5 1478,-132.5 1478,-163.5 1478,-163.5 1478,-169.5 1472,-175.5 1466,-175.5"/>
<text text-anchor="middle" x="1417" y="-157.9" font-family="WenQuanYi Zen Hei" font-size="12.00">AXI&#45;Lite 前端</text>
<text text-anchor="middle" x="1417" y="-144.9" font-family="WenQuanYi Zen Hei" font-size="12.00">寄存器堆 / CSR</text>
<text text-anchor="middle" x="1417" y="-131.9" font-family="WenQuanYi Zen Hei" font-size="12.00">status / start</text>
</g>
<!-- imem -->
<g id="node11" class="node"><title>imem</title>
<path fill="#fffdfa" stroke="#334155" stroke-width="1.15" d="M1047.25,-174C1047.25,-174 950.75,-174 950.75,-174 944.75,-174 938.75,-168 938.75,-162 938.75,-162 938.75,-134 938.75,-134 938.75,-128 944.75,-122 950.75,-122 950.75,-122 1047.25,-122 1047.25,-122 1053.25,-122 1059.25,-128 1059.25,-134 1059.25,-134 1059.25,-162 1059.25,-162 1059.25,-168 1053.25,-174 1047.25,-174"/>
<text text-anchor="middle" x="999" y="-151.4" font-family="WenQuanYi Zen Hei" font-size="12.00">IMEM</text>
<text text-anchor="middle" x="999" y="-138.4" font-family="WenQuanYi Zen Hei" font-size="12.00">59 条 32&#45;bit 指令</text>
</g>
<!-- seq -->
<g id="node12" class="node"><title>seq</title>
<path fill="#fffdfa" stroke="#334155" stroke-width="1.15" d="M1192,-175.5C1192,-175.5 1096,-175.5 1096,-175.5 1090,-175.5 1084,-169.5 1084,-163.5 1084,-163.5 1084,-132.5 1084,-132.5 1084,-126.5 1090,-120.5 1096,-120.5 1096,-120.5 1192,-120.5 1192,-120.5 1198,-120.5 1204,-126.5 1204,-132.5 1204,-132.5 1204,-163.5 1204,-163.5 1204,-169.5 1198,-175.5 1192,-175.5"/>
<text text-anchor="middle" x="1144" y="-157.9" font-family="WenQuanYi Zen Hei" font-size="12.00">Sequencer</text>
<text text-anchor="middle" x="1144" y="-144.9" font-family="WenQuanYi Zen Hei" font-size="12.00">DISPATCH / WAIT</text>
<text text-anchor="middle" x="1144" y="-131.9" font-family="WenQuanYi Zen Hei" font-size="12.00">ADVANCE</text>
</g>
<!-- soc -->
<g id="node13" class="node"><title>soc</title>
<path fill="#fffdfa" stroke="#334155" stroke-width="1.15" d="M1624,-174C1624,-174 1514,-174 1514,-174 1508,-174 1502,-168 1502,-162 1502,-162 1502,-134 1502,-134 1502,-128 1508,-122 1514,-122 1514,-122 1624,-122 1624,-122 1630,-122 1636,-128 1636,-134 1636,-134 1636,-162 1636,-162 1636,-168 1630,-174 1624,-174"/>
<text text-anchor="middle" x="1569" y="-151.4" font-family="WenQuanYi Zen Hei" font-size="12.00">tpu_soc 顶层</text>
<text text-anchor="middle" x="1569" y="-138.4" font-family="WenQuanYi Zen Hei" font-size="12.00">frontend + TPU core</text>
</g>
<!-- obs -->
<g id="node14" class="node"><title>obs</title>
<path fill="#fffdfa" stroke="#334155" stroke-width="1.15" d="M1760,-175.5C1760,-175.5 1672,-175.5 1672,-175.5 1666,-175.5 1660,-169.5 1660,-163.5 1660,-163.5 1660,-132.5 1660,-132.5 1660,-126.5 1666,-120.5 1672,-120.5 1672,-120.5 1760,-120.5 1760,-120.5 1766,-120.5 1772,-126.5 1772,-132.5 1772,-132.5 1772,-163.5 1772,-163.5 1772,-169.5 1766,-175.5 1760,-175.5"/>
<text text-anchor="middle" x="1716" y="-157.9" font-family="WenQuanYi Zen Hei" font-size="12.00">可观测点</text>
<text text-anchor="middle" x="1716" y="-144.9" font-family="WenQuanYi Zen Hei" font-size="12.00">H1 / dZ2 / dZ1</text>
<text text-anchor="middle" x="1716" y="-131.9" font-family="WenQuanYi Zen Hei" font-size="12.00">UB update</text>
</g>
<!-- ub -->
<g id="node15" class="node"><title>ub</title>
<path fill="#fffdfa" stroke="#334155" stroke-width="1.15" d="M1168,-72.5C1168,-72.5 1062,-72.5 1062,-72.5 1056,-72.5 1050,-66.5 1050,-60.5 1050,-60.5 1050,-29.5 1050,-29.5 1050,-23.5 1056,-17.5 1062,-17.5 1062,-17.5 1168,-17.5 1168,-17.5 1174,-17.5 1180,-23.5 1180,-29.5 1180,-29.5 1180,-60.5 1180,-60.5 1180,-66.5 1174,-72.5 1168,-72.5"/>
<text text-anchor="middle" x="1115" y="-54.9" font-family="WenQuanYi Zen Hei" font-size="12.00">Unified Buffer</text>
<text text-anchor="middle" x="1115" y="-41.9" font-family="WenQuanYi Zen Hei" font-size="12.00">host write / 读指针</text>
<text text-anchor="middle" x="1115" y="-28.9" font-family="WenQuanYi Zen Hei" font-size="12.00">writeback / update</text>
</g>
<!-- sys -->
<g id="node16" class="node"><title>sys</title>
<path fill="#fffdfa" stroke="#334155" stroke-width="1.15" d="M1336,-71C1336,-71 1216,-71 1216,-71 1210,-71 1204,-65 1204,-59 1204,-59 1204,-31 1204,-31 1204,-25 1210,-19 1216,-19 1216,-19 1336,-19 1336,-19 1342,-19 1348,-25 1348,-31 1348,-31 1348,-59 1348,-59 1348,-65 1342,-71 1336,-71"/>
<text text-anchor="middle" x="1276" y="-48.4" font-family="WenQuanYi Zen Hei" font-size="12.00">Systolic Array</text>
<text text-anchor="middle" x="1276" y="-35.4" font-family="WenQuanYi Zen Hei" font-size="12.00">2x2 Weight Stationary</text>
</g>
<!-- vpu -->
<g id="node17" class="node"><title>vpu</title>
<path fill="#fffdfa" stroke="#334155" stroke-width="1.15" d="M1519.25,-71C1519.25,-71 1384.75,-71 1384.75,-71 1378.75,-71 1372.75,-65 1372.75,-59 1372.75,-59 1372.75,-31 1372.75,-31 1372.75,-25 1378.75,-19 1384.75,-19 1384.75,-19 1519.25,-19 1519.25,-19 1525.25,-19 1531.25,-25 1531.25,-31 1531.25,-31 1531.25,-59 1531.25,-59 1531.25,-65 1525.25,-71 1519.25,-71"/>
<text text-anchor="middle" x="1452" y="-48.4" font-family="WenQuanYi Zen Hei" font-size="12.00">VPU 算子链</text>
<text text-anchor="middle" x="1452" y="-35.4" font-family="WenQuanYi Zen Hei" font-size="12.00">bias / 激活 / loss / grad</text>
</g>
<!-- gd -->
<g id="node18" class="node"><title>gd</title>
<path fill="#fffdfa" stroke="#334155" stroke-width="1.15" d="M1666,-72.5C1666,-72.5 1568,-72.5 1568,-72.5 1562,-72.5 1556,-66.5 1556,-60.5 1556,-60.5 1556,-29.5 1556,-29.5 1556,-23.5 1562,-17.5 1568,-17.5 1568,-17.5 1666,-17.5 1666,-17.5 1672,-17.5 1678,-23.5 1678,-29.5 1678,-29.5 1678,-60.5 1678,-60.5 1678,-66.5 1672,-72.5 1666,-72.5"/>
<text text-anchor="middle" x="1617" y="-54.9" font-family="WenQuanYi Zen Hei" font-size="12.00">参数更新路径</text>
<text text-anchor="middle" x="1617" y="-41.9" font-family="WenQuanYi Zen Hei" font-size="12.00">gradient_descent</text>
<text text-anchor="middle" x="1617" y="-28.9" font-family="WenQuanYi Zen Hei" font-size="12.00">回写 UB</text>
</g>
<!-- e2e -->
<g id="node19" class="node"><title>e2e</title>
<path fill="#fffdfa" stroke="#334155" stroke-width="1.15" d="M1903.25,-72.5C1903.25,-72.5 1714.75,-72.5 1714.75,-72.5 1708.75,-72.5 1702.75,-66.5 1702.75,-60.5 1702.75,-60.5 1702.75,-29.5 1702.75,-29.5 1702.75,-23.5 1708.75,-17.5 1714.75,-17.5 1714.75,-17.5 1903.25,-17.5 1903.25,-17.5 1909.25,-17.5 1915.25,-23.5 1915.25,-29.5 1915.25,-29.5 1915.25,-60.5 1915.25,-60.5 1915.25,-66.5 1909.25,-72.5 1903.25,-72.5"/>
<text text-anchor="middle" x="1809" y="-54.9" font-family="WenQuanYi Zen Hei" font-size="12.00">AXI e2e</text>
<text text-anchor="middle" x="1809" y="-41.9" font-family="WenQuanYi Zen Hei" font-size="12.00">41 / 41 PASS</text>
<text text-anchor="middle" x="1809" y="-28.9" font-family="WenQuanYi Zen Hei" font-size="12.00">覆盖 H1 + dZ2 + dZ1 + UB update</text>
</g>
<!-- train -->
<g id="node20" class="node"><title>train</title>
<path fill="#fffdfa" stroke="#334155" stroke-width="1.15" d="M2080.25,-72.5C2080.25,-72.5 1951.75,-72.5 1951.75,-72.5 1945.75,-72.5 1939.75,-66.5 1939.75,-60.5 1939.75,-60.5 1939.75,-29.5 1939.75,-29.5 1939.75,-23.5 1945.75,-17.5 1951.75,-17.5 1951.75,-17.5 2080.25,-17.5 2080.25,-17.5 2086.25,-17.5 2092.25,-23.5 2092.25,-29.5 2092.25,-29.5 2092.25,-60.5 2092.25,-60.5 2092.25,-66.5 2086.25,-72.5 2080.25,-72.5"/>
<text text-anchor="middle" x="2016" y="-54.9" font-family="WenQuanYi Zen Hei" font-size="12.00">多 epoch 收敛</text>
<text text-anchor="middle" x="2016" y="-41.9" font-family="WenQuanYi Zen Hei" font-size="12.00">12 epoch</text>
<text text-anchor="middle" x="2016" y="-28.9" font-family="WenQuanYi Zen Hei" font-size="12.00">loss 0.2529 &#45;&gt; 0.1777</text>
</g>
<!-- xor -->
<g id="node21" class="node"><title>xor</title>
<path fill="#fffdfa" stroke="#334155" stroke-width="1.15" d="M2219.25,-72.5C2219.25,-72.5 2128.75,-72.5 2128.75,-72.5 2122.75,-72.5 2116.75,-66.5 2116.75,-60.5 2116.75,-60.5 2116.75,-29.5 2116.75,-29.5 2116.75,-23.5 2122.75,-17.5 2128.75,-17.5 2128.75,-17.5 2219.25,-17.5 2219.25,-17.5 2225.25,-17.5 2231.25,-23.5 2231.25,-29.5 2231.25,-29.5 2231.25,-60.5 2231.25,-60.5 2231.25,-66.5 2225.25,-72.5 2219.25,-72.5"/>
<text text-anchor="middle" x="2174" y="-54.9" font-family="WenQuanYi Zen Hei" font-size="12.00">任务结果</text>
<text text-anchor="middle" x="2174" y="-41.9" font-family="WenQuanYi Zen Hei" font-size="12.00">XOR 预测</text>
<text text-anchor="middle" x="2174" y="-28.9" font-family="WenQuanYi Zen Hei" font-size="12.00">(0, 1, 1, 0)</text>
</g>
<!-- fmax -->
<g id="node22" class="node"><title>fmax</title>
<path fill="#fffdfa" stroke="#334155" stroke-width="1.15" d="M2398.25,-72.5C2398.25,-72.5 2267.75,-72.5 2267.75,-72.5 2261.75,-72.5 2255.75,-66.5 2255.75,-60.5 2255.75,-60.5 2255.75,-29.5 2255.75,-29.5 2255.75,-23.5 2261.75,-17.5 2267.75,-17.5 2267.75,-17.5 2398.25,-17.5 2398.25,-17.5 2404.25,-17.5 2410.25,-23.5 2410.25,-29.5 2410.25,-29.5 2410.25,-60.5 2410.25,-60.5 2410.25,-66.5 2404.25,-72.5 2398.25,-72.5"/>
<text text-anchor="middle" x="2333" y="-54.9" font-family="WenQuanYi Zen Hei" font-size="12.00">实现亮点</text>
<text text-anchor="middle" x="2333" y="-41.9" font-family="WenQuanYi Zen Hei" font-size="12.00">pipeline 变体</text>
<text text-anchor="middle" x="2333" y="-28.9" font-family="WenQuanYi Zen Hei" font-size="12.00">164.10 &#45;&gt; 183.91 MHz</text>
</g>
<!-- boundary -->
<g id="node23" class="node"><title>boundary</title>
<path fill="#fffdfa" stroke="#334155" stroke-width="1.15" d="M2597,-72.5C2597,-72.5 2447,-72.5 2447,-72.5 2441,-72.5 2435,-66.5 2435,-60.5 2435,-60.5 2435,-29.5 2435,-29.5 2435,-23.5 2441,-17.5 2447,-17.5 2447,-17.5 2597,-17.5 2597,-17.5 2603,-17.5 2609,-23.5 2609,-29.5 2609,-29.5 2609,-60.5 2609,-60.5 2609,-66.5 2603,-72.5 2597,-72.5"/>
<text text-anchor="middle" x="2522" y="-54.9" font-family="WenQuanYi Zen Hei" font-size="12.00">边界说明</text>
<text text-anchor="middle" x="2522" y="-41.9" font-family="WenQuanYi Zen Hei" font-size="12.00">当前 tiny&#45;tpu 原型</text>
<text text-anchor="middle" x="2522" y="-28.9" font-family="WenQuanYi Zen Hei" font-size="12.00">不是通用编译器 / 完整 SoC</text>
</g>
<!-- title&#45;&gt;subtitle -->
<!-- subtitle&#45;&gt;note -->
<!-- spec&#45;&gt;sched -->
<!-- spec&#45;&gt;sched -->
<g id="edge19" class="edge"><title>spec&#45;&gt;sched</title>
<path fill="none" stroke="#8b5e1a" stroke-width="1.6" d="M1130.19,-241C1130.19,-241 1146.46,-241 1146.46,-241"/>
<polygon fill="#8b5e1a" stroke="#8b5e1a" points="1146.46,-243.52 1153.66,-241 1146.46,-238.48 1146.46,-243.52"/>
<text text-anchor="middle" x="1138.33" y="-233.8" font-family="WenQuanYi Zen Hei" font-size="9.00" fill="#8b5e1a">模型到 schedule</text>
</g>
<!-- sched&#45;&gt;artifact -->
<!-- sched&#45;&gt;artifact -->
<g id="edge20" class="edge"><title>sched&#45;&gt;artifact</title>
<path fill="none" stroke="#8b5e1a" stroke-width="1.6" d="M1278.32,-241C1278.32,-241 1295.37,-241 1295.37,-241"/>
<polygon fill="#8b5e1a" stroke="#8b5e1a" points="1295.38,-243.52 1302.57,-241 1295.37,-238.48 1295.38,-243.52"/>
<text text-anchor="middle" x="1291.6" y="-233.8" font-family="WenQuanYi Zen Hei" font-size="9.00" fill="#8b5e1a">编码</text>
</g>
<!-- artifact&#45;&gt;cocotb -->
<!-- artifact&#45;&gt;imem -->
<g id="edge21" class="edge"><title>artifact&#45;&gt;imem</title>
<path fill="none" stroke="#8b5e1a" stroke-width="1.6" d="M1312.5,-223.219C1312.5,-216.393 1312.5,-211 1312.5,-211 1312.5,-211 1031.62,-211 1031.62,-211 1031.62,-211 1031.62,-181.553 1031.62,-181.553"/>
<polygon fill="#8b5e1a" stroke="#8b5e1a" points="1034.15,-181.553 1031.62,-174.353 1029.11,-181.553 1034.15,-181.553"/>
<text text-anchor="middle" x="1144.95" y="-213.8" font-family="WenQuanYi Zen Hei" font-size="9.00" fill="#8b5e1a">装载指令</text>
</g>
<!-- cocotb&#45;&gt;vcs -->
<!-- cocotb&#45;&gt;host -->
<g id="edge22" class="edge"><title>cocotb&#45;&gt;host</title>
<path fill="none" stroke="#8b5e1a" stroke-width="1.6" d="M1605.83,-223.487C1605.83,-206.141 1605.83,-187 1605.83,-187 1605.83,-187 1322.25,-187 1322.25,-187 1322.25,-187 1322.25,-181.43 1322.25,-181.43"/>
<polygon fill="#8b5e1a" stroke="#8b5e1a" points="1324.77,-181.43 1322.25,-174.23 1319.73,-181.43 1324.77,-181.43"/>
<text text-anchor="middle" x="1462.5" y="-189.8" font-family="WenQuanYi Zen Hei" font-size="9.00" fill="#8b5e1a">AXI 驱动</text>
</g>
<!-- cocotb&#45;&gt;e2e -->
<g id="edge40" class="edge"><title>cocotb&#45;&gt;e2e</title>
<path fill="none" stroke="#7c3aed" stroke-width="1.4" stroke-dasharray="5,2" d="M1747.37,-251C1793.8,-251 1843.62,-251 1843.62,-251 1843.62,-251 1843.62,-79.9821 1843.62,-79.9821"/>
<polygon fill="#7c3aed" stroke="#7c3aed" points="1846.15,-79.982 1843.62,-72.7821 1841.11,-79.9821 1846.15,-79.982"/>
</g>
<!-- vcs&#45;&gt;soc -->
<g id="edge23" class="edge"><title>vcs&#45;&gt;soc</title>
<path fill="none" stroke="#8b5e1a" stroke-width="1.5" stroke-dasharray="5,2" d="M1534.12,-223.398C1534.12,-223.398 1534.12,-181.458 1534.12,-181.458"/>
<polygon fill="#8b5e1a" stroke="#8b5e1a" points="1536.65,-181.458 1534.12,-174.258 1531.61,-181.458 1536.65,-181.458"/>
<text text-anchor="middle" x="1512.12" y="-205.228" font-family="WenQuanYi Zen Hei" font-size="9.00" fill="#8b5e1a">定向 debug</text>
</g>
<!-- host&#45;&gt;axil -->
<!-- host&#45;&gt;axil -->
<g id="edge24" class="edge"><title>host&#45;&gt;axil</title>
<path fill="none" stroke="#2563eb" stroke-width="1.4" d="M1332.18,-139C1332.18,-139 1348.58,-139 1348.58,-139"/>
<polygon fill="#2563eb" stroke="#2563eb" points="1348.58,-141.52 1355.78,-139 1348.58,-136.48 1348.58,-141.52"/>
<text text-anchor="middle" x="1346.38" y="-131.8" font-family="WenQuanYi Zen Hei" font-size="9.00" fill="#2563eb">MMIO</text>
</g>
<!-- axil&#45;&gt;imem -->
<!-- axil&#45;&gt;imem -->
<g id="edge25" class="edge"><title>axil&#45;&gt;imem</title>
<path fill="none" stroke="#2563eb" stroke-width="1.4" d="M1368.56,-120.359C1368.56,-105.42 1368.56,-90 1368.56,-90 1368.56,-90 1053.08,-90 1053.08,-90 1053.08,-90 1053.08,-114.515 1053.08,-114.515"/>
<polygon fill="#2563eb" stroke="#2563eb" points="1050.56,-114.515 1053.08,-121.715 1055.6,-114.515 1050.56,-114.515"/>
<text text-anchor="middle" x="1196.24" y="-92.8" font-family="WenQuanYi Zen Hei" font-size="9.00" fill="#2563eb">写 IMEM</text>
</g>
<!-- axil&#45;&gt;seq -->
<g id="edge26" class="edge"><title>axil&#45;&gt;seq</title>
<path fill="none" stroke="#2563eb" stroke-width="1.4" d="M1360.19,-120.236C1360.19,-116.542 1360.19,-114 1360.19,-114 1360.19,-114 1198,-114 1198,-114 1198,-114 1198,-114.624 1198,-114.624"/>
<polygon fill="#2563eb" stroke="#2563eb" points="1195.48,-113.036 1198,-120.236 1200.52,-113.036 1195.48,-113.036"/>
<text text-anchor="middle" x="1255.4" y="-106.8" font-family="WenQuanYi Zen Hei" font-size="9.00" fill="#2563eb">start / status</text>
</g>
<!-- axil&#45;&gt;soc -->
<g id="edge29" class="edge"><title>axil&#45;&gt;soc</title>
<path fill="none" stroke="#c2410c" stroke-width="1.65" d="M1478.39,-148C1478.39,-148 1494.71,-148 1494.71,-148"/>
<polygon fill="#c2410c" stroke="#c2410c" points="1494.71,-150.52 1501.91,-148 1494.71,-145.48 1494.71,-150.52"/>
<text text-anchor="middle" x="1486.55" y="-140.8" font-family="WenQuanYi Zen Hei" font-size="9.00" fill="#c2410c">参数 / UB_DATA</text>
</g>
<!-- imem&#45;&gt;seq -->
<!-- imem&#45;&gt;seq -->
<g id="edge27" class="edge"><title>imem&#45;&gt;seq</title>
<path fill="none" stroke="#2563eb" stroke-width="1.4" d="M1059.65,-139C1059.65,-139 1076.39,-139 1076.39,-139"/>
<polygon fill="#2563eb" stroke="#2563eb" points="1076.39,-141.52 1083.59,-139 1076.39,-136.48 1076.39,-141.52"/>
<text text-anchor="middle" x="1068.02" y="-131.8" font-family="WenQuanYi Zen Hei" font-size="9.00" fill="#2563eb">wait_after</text>
</g>
<!-- seq&#45;&gt;soc -->
<!-- seq&#45;&gt;soc -->
<g id="edge28" class="edge"><title>seq&#45;&gt;soc</title>
<path fill="none" stroke="#2563eb" stroke-width="1.4" d="M1186,-120.445C1186,-110.648 1186,-102 1186,-102 1186,-102 1516.62,-102 1516.62,-102 1516.62,-102 1516.62,-114.575 1516.62,-114.575"/>
<polygon fill="#2563eb" stroke="#2563eb" points="1514.11,-114.575 1516.62,-121.775 1519.15,-114.575 1514.11,-114.575"/>
<text text-anchor="middle" x="1317.88" y="-104.8" font-family="WenQuanYi Zen Hei" font-size="9.00" fill="#2563eb">seq_instr_pulse</text>
</g>
<!-- soc&#45;&gt;obs -->
<!-- soc&#45;&gt;ub -->
<g id="edge30" class="edge"><title>soc&#45;&gt;ub</title>
<path fill="none" stroke="#0f766e" stroke-width="1.4" d="M1523.94,-121.969C1523.94,-104.25 1523.94,-84 1523.94,-84 1523.94,-84 1116,-84 1116,-84 1116,-84 1116,-79.7097 1116,-79.7097"/>
<polygon fill="#0f766e" stroke="#0f766e" points="1118.52,-79.7096 1116,-72.5097 1113.48,-79.7097 1118.52,-79.7096"/>
<text text-anchor="middle" x="1318.31" y="-86.8" font-family="WenQuanYi Zen Hei" font-size="9.00" fill="#0f766e">数据搬运</text>
</g>
<!-- soc&#45;&gt;obs -->
<g id="edge35" class="edge"><title>soc&#45;&gt;obs</title>
<path fill="none" stroke="#0f766e" stroke-width="1.4" d="M1636.05,-139C1636.05,-139 1652.41,-139 1652.41,-139"/>
<polygon fill="#0f766e" stroke="#0f766e" points="1652.41,-141.52 1659.61,-139 1652.41,-136.48 1652.41,-141.52"/>
<text text-anchor="middle" x="1644.23" y="-131.8" font-family="WenQuanYi Zen Hei" font-size="9.00" fill="#0f766e">对外观测</text>
</g>
<!-- obs&#45;&gt;e2e -->
<g id="edge36" class="edge"><title>obs&#45;&gt;e2e</title>
<path fill="none" stroke="#7c3aed" stroke-width="1.6" d="M1737.38,-120.398C1737.38,-120.398 1737.38,-79.8783 1737.38,-79.8783"/>
<polygon fill="#7c3aed" stroke="#7c3aed" points="1739.9,-79.8783 1737.38,-72.6783 1734.86,-79.8783 1739.9,-79.8783"/>
<text text-anchor="middle" x="1715.88" y="-102.938" font-family="WenQuanYi Zen Hei" font-size="9.00" fill="#7c3aed">scoreboard</text>
</g>
<!-- ub&#45;&gt;sys -->
<!-- ub&#45;&gt;sys -->
<g id="edge31" class="edge"><title>ub&#45;&gt;sys</title>
<path fill="none" stroke="#0f766e" stroke-width="1.4" d="M1180.02,-36C1180.02,-36 1196.68,-36 1196.68,-36"/>
<polygon fill="#0f766e" stroke="#0f766e" points="1196.68,-38.5201 1203.88,-36 1196.68,-33.4801 1196.68,-38.5201"/>
<text text-anchor="middle" x="1188.35" y="-28.8" font-family="WenQuanYi Zen Hei" font-size="9.00" fill="#0f766e">矩阵块</text>
</g>
<!-- sys&#45;&gt;vpu -->
<!-- sys&#45;&gt;vpu -->
<g id="edge32" class="edge"><title>sys&#45;&gt;vpu</title>
<path fill="none" stroke="#0f766e" stroke-width="1.4" d="M1348.09,-36C1348.09,-36 1365.37,-36 1365.37,-36"/>
<polygon fill="#0f766e" stroke="#0f766e" points="1365.37,-38.5201 1372.57,-36 1365.37,-33.4801 1365.37,-38.5201"/>
<text text-anchor="middle" x="1365.98" y="-28.8" font-family="WenQuanYi Zen Hei" font-size="9.00" fill="#0f766e">中间结果</text>
</g>
<!-- sys&#45;&gt;fmax -->
<g id="edge39" class="edge"><title>sys&#45;&gt;fmax</title>
<path fill="none" stroke="#7c3aed" stroke-width="1.5" stroke-dasharray="5,2" d="M1276,-18.8233C1276,-8.92365 1276,-0 1276,-0 1276,-0 2333,-0 2333,-0 2333,-0 2333,-10.0695 2333,-10.0695"/>
<polygon fill="#7c3aed" stroke="#7c3aed" points="2330.48,-10.0694 2333,-17.2695 2335.52,-10.0695 2330.48,-10.0694"/>
</g>
<!-- vpu&#45;&gt;gd -->
<!-- vpu&#45;&gt;gd -->
<g id="edge33" class="edge"><title>vpu&#45;&gt;gd</title>
<path fill="none" stroke="#0f766e" stroke-width="1.4" d="M1531.6,-36C1531.6,-36 1548.43,-36 1548.43,-36"/>
<polygon fill="#0f766e" stroke="#0f766e" points="1548.43,-38.5201 1555.63,-36 1548.43,-33.4801 1548.43,-38.5201"/>
<text text-anchor="middle" x="1540.01" y="-28.8" font-family="WenQuanYi Zen Hei" font-size="9.00" fill="#0f766e">梯度 / 更新值</text>
</g>
<!-- gd&#45;&gt;ub -->
<g id="edge34" class="edge"><title>gd&#45;&gt;ub</title>
<path fill="none" stroke="#c2410c" stroke-width="1.4" d="M1596,-72.5507C1596,-75.8066 1596,-78 1596,-78 1596,-78 1148,-78 1148,-78 1148,-78 1148,-77.4551 1148,-77.4551"/>
<polygon fill="#c2410c" stroke="#c2410c" points="1150.52,-79.7507 1148,-72.5507 1145.48,-79.7508 1150.52,-79.7507"/>
<text text-anchor="middle" x="1357.95" y="-80.8" font-family="WenQuanYi Zen Hei" font-size="9.00" fill="#c2410c">回写 UB</text>
</g>
<!-- e2e&#45;&gt;train -->
<!-- e2e&#45;&gt;train -->
<g id="edge37" class="edge"><title>e2e&#45;&gt;train</title>
<path fill="none" stroke="#7c3aed" stroke-width="1.5" stroke-dasharray="5,2" d="M1915.53,-35C1915.53,-35 1932.43,-35 1932.43,-35"/>
<polygon fill="#7c3aed" stroke="#7c3aed" points="1932.43,-37.5201 1939.63,-35 1932.43,-32.4801 1932.43,-37.5201"/>
<text text-anchor="middle" x="1914.73" y="-27.8" font-family="WenQuanYi Zen Hei" font-size="9.00" fill="#7c3aed">行为正确</text>
</g>
<!-- train&#45;&gt;xor -->
<!-- train&#45;&gt;xor -->
<g id="edge38" class="edge"><title>train&#45;&gt;xor</title>
<path fill="none" stroke="#7c3aed" stroke-width="1.6" d="M2092.69,-35C2092.69,-35 2109.31,-35 2109.31,-35"/>
<polygon fill="#7c3aed" stroke="#7c3aed" points="2109.31,-37.5201 2116.51,-35 2109.31,-32.4801 2109.31,-37.5201"/>
</g>
<!-- xor&#45;&gt;fmax -->
<!-- fmax&#45;&gt;boundary -->
</g>
</svg>
