<?xml version="1.0" encoding="UTF-8" standalone="no"?>
<!DOCTYPE svg PUBLIC "-//W3C//DTD SVG 1.1//EN"
 "http://www.w3.org/Graphics/SVG/1.1/DTD/svg11.dtd">
<!-- Generated by graphviz version 2.30.1 (20201013.1554)
 -->
<!-- Title: TinyTPUProjectPPT_ZH Pages: 1 -->
<svg width="2641pt" height="646pt"
 viewBox="0.00 0.00 2640.56 645.56" xmlns="http://www.w3.org/2000/svg" xmlns:xlink="http://www.w3.org/1999/xlink">
<g id="graph0" class="graph" transform="scale(1 1) rotate(0) translate(17.28 628.28)">
<title>TinyTPUProjectPPT_ZH</title>
<polygon fill="#f8f6f1" stroke="#f8f6f1" points="-17.28,18.28 -17.28,-628.28 2624.28,-628.28 2624.28,18.28 -17.28,18.28"/>
<g id="clust2" class="cluster"><title>cluster_goal</title>
<path fill="#fff4df" stroke="#d08a1c" stroke-width="1.3" d="M603,-244C603,-244 787,-244 787,-244 793,-244 799,-250 799,-256 799,-256 799,-473 799,-473 799,-479 793,-485 787,-485 787,-485 603,-485 603,-485 597,-485 591,-479 591,-473 591,-473 591,-256 591,-256 591,-250 597,-244 603,-244"/>
<text text-anchor="middle" x="636.5" y="-469.8" font-family="WenQuanYi Zen Hei" font-size="14.00">1. 项目起点</text>
</g>
<g id="clust3" class="cluster"><title>cluster_solution</title>
<path fill="#eaf2fd" stroke="#2b6cb0" stroke-width="1.3" d="M824,-248C824,-248 1958,-248 1958,-248 1964,-248 1970,-254 1970,-260 1970,-260 1970,-469 1970,-469 1970,-475 1964,-481 1958,-481 1958,-481 824,-481 824,-481 818,-481 812,-475 812,-469 812,-469 812,-260 812,-260 812,-254 818,-248 824,-248"/>
<text text-anchor="middle" x="857.5" y="-465.8" font-family="WenQuanYi Zen Hei" font-size="14.00">2. 系统补齐</text>
</g>
<g id="clust6" class="cluster"><title>cluster_verify</title>
<path fill="#e7f6f1" stroke="#0f766e" stroke-width="1.3" d="M1996,-245C1996,-245 2376,-245 2376,-245 2382,-245 2388,-251 2388,-257 2388,-257 2388,-591 2388,-591 2388,-597 2382,-603 2376,-603 2376,-603 1996,-603 1996,-603 1990,-603 1984,-597 1984,-591 1984,-591 1984,-257 1984,-257 1984,-251 1990,-245 1996,-245"/>
<text text-anchor="middle" x="2058.5" y="-587.8" font-family="WenQuanYi Zen Hei" font-size="14.00">3. 验证闭环与 Debug</text>
</g>
<g id="clust7" class="cluster"><title>cluster_result</title>
<path fill="#f2ebff" stroke="#7c3aed" stroke-width="1.3" d="M2408,-8C2408,-8 2586,-8 2586,-8 2592,-8 2598,-14 2598,-20 2598,-20 2598,-591 2598,-591 2598,-597 2592,-603 2586,-603 2586,-603 2408,-603 2408,-603 2402,-603 2396,-597 2396,-591 2396,-591 2396,-20 2396,-20 2396,-14 2402,-8 2408,-8"/>
<text text-anchor="middle" x="2463" y="-587.8" font-family="WenQuanYi Zen Hei" font-size="14.00">4. 可对外表述结果</text>
</g>
<!-- title -->
<g id="node1" class="node"><title>title</title>
<path fill="#efe4cf" stroke="#8b6b3f" stroke-width="1.4" d="M434,-567C434,-567 12,-567 12,-567 6,-567 0,-561 0,-555 0,-555 0,-523 0,-523 0,-517 6,-511 12,-511 12,-511 434,-511 434,-511 440,-511 446,-517 446,-523 446,-523 446,-555 446,-555 446,-561 440,-567 434,-567"/>
<text text-anchor="middle" x="223" y="-533.4" font-family="WenQuanYi Zen Hei" font-size="22.00">TinyTPU AXI&#45;Lite SoC 项目总览</text>
</g>
<!-- sub1 -->
<g id="node2" class="node"><title>sub1</title>
<path fill="#f7efe3" stroke="#b38c54" stroke-width="1.2" d="M129,-434.5C129,-434.5 49,-434.5 49,-434.5 43,-434.5 37,-428.5 37,-422.5 37,-422.5 37,-409.5 37,-409.5 37,-403.5 43,-397.5 49,-397.5 49,-397.5 129,-397.5 129,-397.5 135,-397.5 141,-403.5 141,-409.5 141,-409.5 141,-422.5 141,-422.5 141,-428.5 135,-434.5 129,-434.5"/>
<text text-anchor="middle" x="89" y="-413.2" font-family="WenQuanYi Zen Hei" font-size="11.00">系统集成</text>
</g>
<!-- sub2 -->
<g id="node3" class="node"><title>sub2</title>
<path fill="#f7efe3" stroke="#b38c54" stroke-width="1.2" d="M263,-434.5C263,-434.5 183,-434.5 183,-434.5 177,-434.5 171,-428.5 171,-422.5 171,-422.5 171,-409.5 171,-409.5 171,-403.5 177,-397.5 183,-397.5 183,-397.5 263,-397.5 263,-397.5 269,-397.5 275,-403.5 275,-409.5 275,-409.5 275,-422.5 275,-422.5 275,-428.5 269,-434.5 263,-434.5"/>
<text text-anchor="middle" x="223" y="-413.2" font-family="WenQuanYi Zen Hei" font-size="11.00">指令化执行</text>
</g>
<!-- sub3 -->
<g id="node4" class="node"><title>sub3</title>
<path fill="#f7efe3" stroke="#b38c54" stroke-width="1.2" d="M408.25,-434.5C408.25,-434.5 317.75,-434.5 317.75,-434.5 311.75,-434.5 305.75,-428.5 305.75,-422.5 305.75,-422.5 305.75,-409.5 305.75,-409.5 305.75,-403.5 311.75,-397.5 317.75,-397.5 317.75,-397.5 408.25,-397.5 408.25,-397.5 414.25,-397.5 420.25,-403.5 420.25,-409.5 420.25,-409.5 420.25,-422.5 420.25,-422.5 420.25,-428.5 414.25,-434.5 408.25,-434.5"/>
<text text-anchor="middle" x="363" y="-413.2" font-family="WenQuanYi Zen Hei" font-size="11.00">cocotb 闭环验证</text>
</g>
<!-- sub4 -->
<g id="node5" class="node"><title>sub4</title>
<path fill="#f7efe3" stroke="#b38c54" stroke-width="1.2" d="M557.25,-434.5C557.25,-434.5 462.75,-434.5 462.75,-434.5 456.75,-434.5 450.75,-428.5 450.75,-422.5 450.75,-422.5 450.75,-409.5 450.75,-409.5 450.75,-403.5 456.75,-397.5 462.75,-397.5 462.75,-397.5 557.25,-397.5 557.25,-397.5 563.25,-397.5 569.25,-403.5 569.25,-409.5 569.25,-409.5 569.25,-422.5 569.25,-422.5 569.25,-428.5 563.25,-434.5 557.25,-434.5"/>
<text text-anchor="middle" x="510" y="-413.2" font-family="WenQuanYi Zen Hei" font-size="11.00">2x2 / Q8.8 / XOR</text>
</g>
<!-- baseline -->
<g id="node6" class="node"><title>baseline</title>
<path fill="#fffdfa" stroke="#334155" stroke-width="1.2" d="M778.25,-454C778.25,-454 611.75,-454 611.75,-454 605.75,-454 599.75,-448 599.75,-442 599.75,-442 599.75,-390 599.75,-390 599.75,-384 605.75,-378 611.75,-378 611.75,-378 778.25,-378 778.25,-378 784.25,-378 790.25,-384 790.25,-390 790.25,-390 790.25,-442 790.25,-442 790.25,-448 784.25,-454 778.25,-454"/>
<text text-anchor="middle" x="695" y="-426.6" font-family="WenQuanYi Zen Hei" font-size="13.00">原始 tiny&#45;tpu</text>
<text text-anchor="middle" x="695" y="-412.6" font-family="WenQuanYi Zen Hei" font-size="13.00">主要靠 testbench 直驱 RTL</text>
<text text-anchor="middle" x="695" y="-398.6" font-family="WenQuanYi Zen Hei" font-size="13.00">能做模块验证 但不够 SoC 化</text>
</g>
<!-- gap -->
<g id="node7" class="node"><title>gap</title>
<path fill="#fffdfa" stroke="#334155" stroke-width="1.2" d="M755,-326C755,-326 635,-326 635,-326 629,-326 623,-320 623,-314 623,-314 623,-264 623,-264 623,-258 629,-252 635,-252 635,-252 755,-252 755,-252 761,-252 767,-258 767,-264 767,-264 767,-314 767,-314 767,-320 761,-326 755,-326"/>
<text text-anchor="middle" x="695" y="-306.6" font-family="WenQuanYi Zen Hei" font-size="13.00">我补的缺口</text>
<text text-anchor="middle" x="695" y="-292.6" font-family="WenQuanYi Zen Hei" font-size="13.00">AXI&#45;Lite 接口</text>
<text text-anchor="middle" x="695" y="-278.6" font-family="WenQuanYi Zen Hei" font-size="13.00">IMEM / sequencer</text>
<text text-anchor="middle" x="695" y="-264.6" font-family="WenQuanYi Zen Hei" font-size="13.00">系统级训练闭环</text>
</g>
<!-- host -->
<g id="node8" class="node"><title>host</title>
<path fill="#f7e7d0" stroke="#334155" stroke-width="1.2" d="M923.25,-442C923.25,-442 832.75,-442 832.75,-442 826.75,-442 820.75,-436 820.75,-430 820.75,-430 820.75,-402 820.75,-402 820.75,-396 826.75,-390 832.75,-390 832.75,-390 923.25,-390 923.25,-390 929.25,-390 935.25,-396 935.25,-402 935.25,-402 935.25,-430 935.25,-430 935.25,-436 929.25,-442 923.25,-442"/>
<text text-anchor="middle" x="878" y="-419.6" font-family="WenQuanYi Zen Hei" font-size="13.00">Host / PS</text>
<text text-anchor="middle" x="878" y="-405.6" font-family="WenQuanYi Zen Hei" font-size="13.00">AXI&#45;Lite MMIO</text>
</g>
<!-- axil -->
<g id="node9" class="node"><title>axil</title>
<path fill="#fffdfa" stroke="#334155" stroke-width="1.2" d="M1102,-450C1102,-450 978,-450 978,-450 972,-450 966,-444 966,-438 966,-438 966,-394 966,-394 966,-388 972,-382 978,-382 978,-382 1102,-382 1102,-382 1108,-382 1114,-388 1114,-394 1114,-394 1114,-438 1114,-438 1114,-444 1108,-450 1102,-450"/>
<text text-anchor="middle" x="1040" y="-426.6" font-family="WenQuanYi Zen Hei" font-size="13.00">AXI&#45;Lite 前端</text>
<text text-anchor="middle" x="1040" y="-412.6" font-family="WenQuanYi Zen Hei" font-size="13.00">寄存器堆 / CSR</text>
<text text-anchor="middle" x="1040" y="-398.6" font-family="WenQuanYi Zen Hei" font-size="13.00">start / status / IMEM</text>
</g>
<!-- seq -->
<g id="node10" class="node"><title>seq</title>
<path fill="#fffdfa" stroke="#334155" stroke-width="1.2" d="M1260,-446.5C1260,-446.5 1156,-446.5 1156,-446.5 1150,-446.5 1144,-440.5 1144,-434.5 1144,-434.5 1144,-397.5 1144,-397.5 1144,-391.5 1150,-385.5 1156,-385.5 1156,-385.5 1260,-385.5 1260,-385.5 1266,-385.5 1272,-391.5 1272,-397.5 1272,-397.5 1272,-434.5 1272,-434.5 1272,-440.5 1266,-446.5 1260,-446.5"/>
<text text-anchor="middle" x="1208" y="-426.6" font-family="WenQuanYi Zen Hei" font-size="13.00">Sequencer</text>
<text text-anchor="middle" x="1208" y="-412.6" font-family="WenQuanYi Zen Hei" font-size="13.00">DISPATCH / WAIT</text>
<text text-anchor="middle" x="1208" y="-398.6" font-family="WenQuanYi Zen Hei" font-size="13.00">ADVANCE</text>
</g>
<!-- imem -->
<g id="node11" class="node"><title>imem</title>
<path fill="#fffdfa" stroke="#334155" stroke-width="1.2" d="M1160.25,-318C1160.25,-318 1087.75,-318 1087.75,-318 1081.75,-318 1075.75,-312 1075.75,-306 1075.75,-306 1075.75,-272 1075.75,-272 1075.75,-266 1081.75,-260 1087.75,-260 1087.75,-260 1160.25,-260 1160.25,-260 1166.25,-260 1172.25,-266 1172.25,-272 1172.25,-272 1172.25,-306 1172.25,-306 1172.25,-312 1166.25,-318 1160.25,-318"/>
<text text-anchor="middle" x="1124" y="-292.6" font-family="WenQuanYi Zen Hei" font-size="13.00">IMEM</text>
<text text-anchor="middle" x="1124" y="-278.6" font-family="WenQuanYi Zen Hei" font-size="13.00">59 条指令</text>
</g>
<!-- compiler -->
<g id="node12" class="node"><title>compiler</title>
<path fill="#f3efe4" stroke="#334155" stroke-width="1.2" d="M1024,-322C1024,-322 926,-322 926,-322 920,-322 914,-316 914,-310 914,-310 914,-268 914,-268 914,-262 920,-256 926,-256 926,-256 1024,-256 1024,-256 1030,-256 1036,-262 1036,-268 1036,-268 1036,-310 1036,-310 1036,-316 1030,-322 1024,-322"/>
<text text-anchor="middle" x="975" y="-299.6" font-family="WenQuanYi Zen Hei" font-size="13.00">Python 调度器</text>
<text text-anchor="middle" x="975" y="-285.6" font-family="WenQuanYi Zen Hei" font-size="13.00">scheduler.py</text>
<text text-anchor="middle" x="975" y="-271.6" font-family="WenQuanYi Zen Hei" font-size="13.00">encode_instrs.py</text>
</g>
<!-- soc -->
<g id="node13" class="node"><title>soc</title>
<path fill="#fffdfa" stroke="#334155" stroke-width="1.2" d="M1418,-445.5C1418,-445.5 1314,-445.5 1314,-445.5 1308,-445.5 1302,-439.5 1302,-433.5 1302,-433.5 1302,-398.5 1302,-398.5 1302,-392.5 1308,-386.5 1314,-386.5 1314,-386.5 1418,-386.5 1418,-386.5 1424,-386.5 1430,-392.5 1430,-398.5 1430,-398.5 1430,-433.5 1430,-433.5 1430,-439.5 1424,-445.5 1418,-445.5"/>
<text text-anchor="middle" x="1366" y="-419.6" font-family="WenQuanYi Zen Hei" font-size="13.00">tpu_soc</text>
<text text-anchor="middle" x="1366" y="-405.6" font-family="WenQuanYi Zen Hei" font-size="13.00">frontend + TPU 核</text>
</g>
<!-- ub -->
<g id="node14" class="node"><title>ub</title>
<path fill="#fffdfa" stroke="#334155" stroke-width="1.2" d="M1582,-445.5C1582,-445.5 1472,-445.5 1472,-445.5 1466,-445.5 1460,-439.5 1460,-433.5 1460,-433.5 1460,-398.5 1460,-398.5 1460,-392.5 1466,-386.5 1472,-386.5 1472,-386.5 1582,-386.5 1582,-386.5 1588,-386.5 1594,-392.5 1594,-398.5 1594,-398.5 1594,-433.5 1594,-433.5 1594,-439.5 1588,-445.5 1582,-445.5"/>
<text text-anchor="middle" x="1527" y="-419.6" font-family="WenQuanYi Zen Hei" font-size="13.00">Unified Buffer</text>
<text text-anchor="middle" x="1527" y="-405.6" font-family="WenQuanYi Zen Hei" font-size="13.00">host write / update</text>
</g>
<!-- sys -->
<g id="node15" class="node"><title>sys</title>
<path fill="#fffdfa" stroke="#334155" stroke-width="1.2" d="M1949.25,-445.5C1949.25,-445.5 1824.75,-445.5 1824.75,-445.5 1818.75,-445.5 1812.75,-439.5 1812.75,-433.5 1812.75,-433.5 1812.75,-398.5 1812.75,-398.5 1812.75,-392.5 1818.75,-386.5 1824.75,-386.5 1824.75,-386.5 1949.25,-386.5 1949.25,-386.5 1955.25,-386.5 1961.25,-392.5 1961.25,-398.5 1961.25,-398.5 1961.25,-433.5 1961.25,-433.5 1961.25,-439.5 1955.25,-445.5 1949.25,-445.5"/>
<text text-anchor="middle" x="1887" y="-419.6" font-family="WenQuanYi Zen Hei" font-size="13.00">Systolic Array</text>
<text text-anchor="middle" x="1887" y="-405.6" font-family="WenQuanYi Zen Hei" font-size="13.00">2x2 Weight Stationary</text>
</g>
<!-- vpu -->
<g id="node16" class="node"><title>vpu</title>
<path fill="#fffdfa" stroke="#334155" stroke-width="1.2" d="M1770,-445.5C1770,-445.5 1636,-445.5 1636,-445.5 1630,-445.5 1624,-439.5 1624,-433.5 1624,-433.5 1624,-398.5 1624,-398.5 1624,-392.5 1630,-386.5 1636,-386.5 1636,-386.5 1770,-386.5 1770,-386.5 1776,-386.5 1782,-392.5 1782,-398.5 1782,-398.5 1782,-433.5 1782,-433.5 1782,-439.5 1776,-445.5 1770,-445.5"/>
<text text-anchor="middle" x="1703" y="-419.6" font-family="WenQuanYi Zen Hei" font-size="13.00">VPU</text>
<text text-anchor="middle" x="1703" y="-405.6" font-family="WenQuanYi Zen Hei" font-size="13.00">bias / act / loss / grad</text>
</g>
<!-- e2e -->
<g id="node17" class="node"><title>e2e</title>
<path fill="#fffdfa" stroke="#334155" stroke-width="1.2" d="M2368,-454C2368,-454 2174,-454 2174,-454 2168,-454 2162,-448 2162,-442 2162,-442 2162,-390 2162,-390 2162,-384 2168,-378 2174,-378 2174,-378 2368,-378 2368,-378 2374,-378 2380,-384 2380,-390 2380,-390 2380,-442 2380,-442 2380,-448 2374,-454 2368,-454"/>
<text text-anchor="middle" x="2271" y="-426.6" font-family="WenQuanYi Zen Hei" font-size="13.00">cocotb e2e</text>
<text text-anchor="middle" x="2271" y="-412.6" font-family="WenQuanYi Zen Hei" font-size="13.00">AXI 写入 UB / IMEM</text>
<text text-anchor="middle" x="2271" y="-398.6" font-family="WenQuanYi Zen Hei" font-size="13.00">检查 H1 + dZ2 + dZ1 + UB update</text>
</g>
<!-- conv -->
<g id="node18" class="node"><title>conv</title>
<path fill="#fffdfa" stroke="#334155" stroke-width="1.2" d="M2147.25,-325C2147.25,-325 2004.75,-325 2004.75,-325 1998.75,-325 1992.75,-319 1992.75,-313 1992.75,-313 1992.75,-265 1992.75,-265 1992.75,-259 1998.75,-253 2004.75,-253 2004.75,-253 2147.25,-253 2147.25,-253 2153.25,-253 2159.25,-259 2159.25,-265 2159.25,-265 2159.25,-313 2159.25,-313 2159.25,-319 2153.25,-325 2147.25,-325"/>
<text text-anchor="middle" x="2076" y="-299.6" font-family="WenQuanYi Zen Hei" font-size="13.00">多 epoch 收敛</text>
<text text-anchor="middle" x="2076" y="-285.6" font-family="WenQuanYi Zen Hei" font-size="13.00">连续触发训练</text>
<text text-anchor="middle" x="2076" y="-271.6" font-family="WenQuanYi Zen Hei" font-size="13.00">看 loss 趋势与 XOR 分类</text>
</g>
<!-- refm -->
<g id="node19" class="node"><title>refm</title>
<path fill="#fffdfa" stroke="#334155" stroke-width="1.2" d="M2340.25,-571.5C2340.25,-571.5 2201.75,-571.5 2201.75,-571.5 2195.75,-571.5 2189.75,-565.5 2189.75,-559.5 2189.75,-559.5 2189.75,-518.5 2189.75,-518.5 2189.75,-512.5 2195.75,-506.5 2201.75,-506.5 2201.75,-506.5 2340.25,-506.5 2340.25,-506.5 2346.25,-506.5 2352.25,-512.5 2352.25,-518.5 2352.25,-518.5 2352.25,-559.5 2352.25,-559.5 2352.25,-565.5 2346.25,-571.5 2340.25,-571.5"/>
<text text-anchor="middle" x="2271" y="-542.6" font-family="WenQuanYi Zen Hei" font-size="13.00">NumPy / Q8.8 参考模型</text>
<text text-anchor="middle" x="2271" y="-528.6" font-family="WenQuanYi Zen Hei" font-size="13.00">scoreboard + 趋势对齐</text>
</g>
<!-- bugs -->
<g id="node20" class="node"><title>bugs</title>
<path fill="#fffdfa" stroke="#334155" stroke-width="1.2" d="M2120,-453C2120,-453 2004,-453 2004,-453 1998,-453 1992,-447 1992,-441 1992,-441 1992,-391 1992,-391 1992,-385 1998,-379 2004,-379 2004,-379 2120,-379 2120,-379 2126,-379 2132,-385 2132,-391 2132,-391 2132,-441 2132,-441 2132,-447 2126,-453 2120,-453"/>
<text text-anchor="middle" x="2062" y="-433.6" font-family="WenQuanYi Zen Hei" font-size="13.00">关键 bug 收敛</text>
<text text-anchor="middle" x="2062" y="-419.6" font-family="WenQuanYi Zen Hei" font-size="13.00">host write 无效</text>
<text text-anchor="middle" x="2062" y="-405.6" font-family="WenQuanYi Zen Hei" font-size="13.00">pathway 不保持</text>
<text text-anchor="middle" x="2062" y="-391.6" font-family="WenQuanYi Zen Hei" font-size="13.00">wait 逻辑卡死</text>
</g>
<!-- pass -->
<g id="node21" class="node"><title>pass</title>
<path fill="#fffdfa" stroke="#334155" stroke-width="1.2" d="M2542,-446.5C2542,-446.5 2458,-446.5 2458,-446.5 2452,-446.5 2446,-440.5 2446,-434.5 2446,-434.5 2446,-397.5 2446,-397.5 2446,-391.5 2452,-385.5 2458,-385.5 2458,-385.5 2542,-385.5 2542,-385.5 2548,-385.5 2554,-391.5 2554,-397.5 2554,-397.5 2554,-434.5 2554,-434.5 2554,-440.5 2548,-446.5 2542,-446.5"/>
<text text-anchor="middle" x="2500" y="-419.6" font-family="WenQuanYi Zen Hei" font-size="13.00">单次 e2e</text>
<text text-anchor="middle" x="2500" y="-405.6" font-family="WenQuanYi Zen Hei" font-size="13.00">41 / 41 PASS</text>
</g>
<!-- train -->
<g id="node22" class="node"><title>train</title>
<path fill="#fffdfa" stroke="#334155" stroke-width="1.2" d="M2522,-199.5C2522,-199.5 2416,-199.5 2416,-199.5 2410,-199.5 2404,-193.5 2404,-187.5 2404,-187.5 2404,-146.5 2404,-146.5 2404,-140.5 2410,-134.5 2416,-134.5 2416,-134.5 2522,-134.5 2522,-134.5 2528,-134.5 2534,-140.5 2534,-146.5 2534,-146.5 2534,-187.5 2534,-187.5 2534,-193.5 2528,-199.5 2522,-199.5"/>
<text text-anchor="middle" x="2469" y="-177.6" font-family="WenQuanYi Zen Hei" font-size="13.00">训练收敛</text>
<text text-anchor="middle" x="2469" y="-163.6" font-family="WenQuanYi Zen Hei" font-size="13.00">12 epoch</text>
<text text-anchor="middle" x="2469" y="-149.6" font-family="WenQuanYi Zen Hei" font-size="13.00">0.2529 &#45;&gt; 0.1777</text>
</g>
<!-- xor -->
<g id="node23" class="node"><title>xor</title>
<path fill="#fffdfa" stroke="#334155" stroke-width="1.2" d="M2514.25,-81.5C2514.25,-81.5 2423.75,-81.5 2423.75,-81.5 2417.75,-81.5 2411.75,-75.5 2411.75,-69.5 2411.75,-69.5 2411.75,-28.5 2411.75,-28.5 2411.75,-22.5 2417.75,-16.5 2423.75,-16.5 2423.75,-16.5 2514.25,-16.5 2514.25,-16.5 2520.25,-16.5 2526.25,-22.5 2526.25,-28.5 2526.25,-28.5 2526.25,-69.5 2526.25,-69.5 2526.25,-75.5 2520.25,-81.5 2514.25,-81.5"/>
<text text-anchor="middle" x="2469" y="-59.6" font-family="WenQuanYi Zen Hei" font-size="13.00">任务结果</text>
<text text-anchor="middle" x="2469" y="-45.6" font-family="WenQuanYi Zen Hei" font-size="13.00">XOR 预测</text>
<text text-anchor="middle" x="2469" y="-31.6" font-family="WenQuanYi Zen Hei" font-size="13.00">(0, 1, 1, 0)</text>
</g>
<!-- fmax -->
<g id="node24" class="node"><title>fmax</title>
<path fill="#fffdfa" stroke="#334155" stroke-width="1.2" d="M2564,-572C2564,-572 2430,-572 2430,-572 2424,-572 2418,-566 2418,-560 2418,-560 2418,-518 2418,-518 2418,-512 2424,-506 2430,-506 2430,-506 2564,-506 2564,-506 2570,-506 2576,-512 2576,-518 2576,-518 2576,-560 2576,-560 2576,-566 2570,-572 2564,-572"/>
<text text-anchor="middle" x="2497" y="-549.6" font-family="WenQuanYi Zen Hei" font-size="13.00">综合亮点</text>
<text text-anchor="middle" x="2497" y="-535.6" font-family="WenQuanYi Zen Hei" font-size="13.00">pipeline 变体</text>
<text text-anchor="middle" x="2497" y="-521.6" font-family="WenQuanYi Zen Hei" font-size="13.00">164.10 &#45;&gt; 183.91 MHz</text>
</g>
<!-- scope -->
<g id="node25" class="node"><title>scope</title>
<path fill="#fffdfa" stroke="#334155" stroke-width="1.2" d="M2577.25,-323C2577.25,-323 2416.75,-323 2416.75,-323 2410.75,-323 2404.75,-317 2404.75,-311 2404.75,-311 2404.75,-267 2404.75,-267 2404.75,-261 2410.75,-255 2416.75,-255 2416.75,-255 2577.25,-255 2577.25,-255 2583.25,-255 2589.25,-261 2589.25,-267 2589.25,-267 2589.25,-311 2589.25,-311 2589.25,-317 2583.25,-323 2577.25,-323"/>
<text text-anchor="middle" x="2497" y="-299.6" font-family="WenQuanYi Zen Hei" font-size="13.00">边界说明</text>
<text text-anchor="middle" x="2497" y="-285.6" font-family="WenQuanYi Zen Hei" font-size="13.00">当前 tiny&#45;tpu 原型</text>
<text text-anchor="middle" x="2497" y="-271.6" font-family="WenQuanYi Zen Hei" font-size="13.00">不是通用编译器 / 完整 SoC</text>
</g>
<!-- title&#45;&gt;sub2 -->
<!-- sub1&#45;&gt;sub2 -->
<!-- sub2&#45;&gt;sub3 -->
<!-- sub3&#45;&gt;sub4 -->
<!-- baseline&#45;&gt;host -->
<!-- baseline&#45;&gt;gap -->
<g id="edge8" class="edge"><title>baseline&#45;&gt;gap</title>
<path fill="none" stroke="#d08a1c" stroke-width="1.7" d="M695,-377.896C695,-377.896 695,-333.703 695,-333.703"/>
<polygon fill="#d08a1c" stroke="#d08a1c" points="697.625,-333.703 695,-326.203 692.375,-333.703 697.625,-333.703"/>
<text text-anchor="middle" x="647.5" y="-358.8" font-family="WenQuanYi Zen Hei" font-size="10.00" fill="#d08a1c">从裸 RTL 到 SoC 原型</text>
</g>
<!-- host&#45;&gt;e2e -->
<!-- host&#45;&gt;axil -->
<g id="edge9" class="edge"><title>host&#45;&gt;axil</title>
<path fill="none" stroke="#8b5e1a" stroke-width="1.75" d="M935.571,-416C935.571,-416 958.397,-416 958.397,-416"/>
<polygon fill="#8b5e1a" stroke="#8b5e1a" points="958.397,-418.625 965.897,-416 958.397,-413.375 958.397,-418.625"/>
<text text-anchor="middle" x="946.984" y="-408" font-family="WenQuanYi Zen Hei" font-size="10.00" fill="#8b5e1a">MMIO 控制</text>
</g>
<!-- axil&#45;&gt;seq -->
<g id="edge11" class="edge"><title>axil&#45;&gt;seq</title>
<path fill="none" stroke="#2563eb" stroke-width="1.45" d="M1114.18,-416C1114.18,-416 1136.47,-416 1136.47,-416"/>
<polygon fill="#2563eb" stroke="#2563eb" points="1136.47,-418.625 1143.97,-416 1136.47,-413.375 1136.47,-418.625"/>
<text text-anchor="middle" x="1110.82" y="-408" font-family="WenQuanYi Zen Hei" font-size="10.00" fill="#2563eb">start / status</text>
</g>
<!-- axil&#45;&gt;imem -->
<g id="edge12" class="edge"><title>axil&#45;&gt;imem</title>
<path fill="none" stroke="#2563eb" stroke-width="1.45" d="M1088.5,-381.966C1088.5,-381.966 1088.5,-325.878 1088.5,-325.878"/>
<polygon fill="#2563eb" stroke="#2563eb" points="1091.13,-325.878 1088.5,-318.378 1085.88,-325.878 1091.13,-325.878"/>
<text text-anchor="middle" x="1065" y="-356.922" font-family="WenQuanYi Zen Hei" font-size="10.00" fill="#2563eb">装载 IMEM</text>
</g>
<!-- axil&#45;&gt;soc -->
<g id="edge15" class="edge"><title>axil&#45;&gt;soc</title>
<path fill="none" stroke="#c2410c" stroke-width="1.7" d="M1101.25,-381.554C1101.25,-361.052 1101.25,-339 1101.25,-339 1101.25,-339 1344.67,-339 1344.67,-339 1344.67,-339 1344.67,-378.95 1344.67,-378.95"/>
<polygon fill="#c2410c" stroke="#c2410c" points="1342.04,-378.95 1344.67,-386.45 1347.29,-378.95 1342.04,-378.95"/>
<text text-anchor="middle" x="1186.16" y="-331" font-family="WenQuanYi Zen Hei" font-size="10.00" fill="#c2410c">UB_DATA / 参数</text>
</g>
<!-- seq&#45;&gt;soc -->
<g id="edge14" class="edge"><title>seq&#45;&gt;soc</title>
<path fill="none" stroke="#2563eb" stroke-width="1.45" d="M1272.26,-416C1272.26,-416 1294.29,-416 1294.29,-416"/>
<polygon fill="#2563eb" stroke="#2563eb" points="1294.29,-418.625 1301.79,-416 1294.29,-413.375 1294.29,-418.625"/>
<text text-anchor="middle" x="1266.03" y="-408" font-family="WenQuanYi Zen Hei" font-size="10.00" fill="#2563eb">seq_instr_pulse</text>
</g>
<!-- imem&#45;&gt;seq -->
<g id="edge13" class="edge"><title>imem&#45;&gt;seq</title>
<path fill="none" stroke="#2563eb" stroke-width="1.45" d="M1158.12,-318.136C1158.12,-318.136 1158.12,-377.728 1158.12,-377.728"/>
<polygon fill="#2563eb" stroke="#2563eb" points="1155.5,-377.728 1158.12,-385.228 1160.75,-377.728 1155.5,-377.728"/>
<text text-anchor="middle" x="1136.62" y="-350.932" font-family="WenQuanYi Zen Hei" font-size="10.00" fill="#2563eb">wait_after</text>
</g>
<!-- compiler&#45;&gt;imem -->
<g id="edge10" class="edge"><title>compiler&#45;&gt;imem</title>
<path fill="none" stroke="#8b5e1a" stroke-width="1.65" d="M1036.03,-289C1036.03,-289 1068.1,-289 1068.1,-289"/>
<polygon fill="#8b5e1a" stroke="#8b5e1a" points="1068.1,-291.625 1075.6,-289 1068.09,-286.375 1068.1,-291.625"/>
<text text-anchor="middle" x="1052.06" y="-281" font-family="WenQuanYi Zen Hei" font-size="10.00" fill="#8b5e1a">生成指令</text>
</g>
<!-- soc&#45;&gt;ub -->
<g id="edge16" class="edge"><title>soc&#45;&gt;ub</title>
<path fill="none" stroke="#0f766e" stroke-width="1.45" d="M1430.09,-416C1430.09,-416 1452.46,-416 1452.46,-416"/>
<polygon fill="#0f766e" stroke="#0f766e" points="1452.46,-418.625 1459.96,-416 1452.46,-413.375 1452.46,-418.625"/>
<text text-anchor="middle" x="1451.28" y="-408" font-family="WenQuanYi Zen Hei" font-size="10.00" fill="#0f766e">数据搬运</text>
</g>
<!-- soc&#45;&gt;e2e -->
<g id="edge20" class="edge"><title>soc&#45;&gt;e2e</title>
<path fill="none" stroke="#0f766e" stroke-width="1.7" d="M1366,-445.752C1366,-462.465 1366,-480 1366,-480 1366,-480 2171.25,-480 2171.25,-480 2171.25,-480 2171.25,-461.838 2171.25,-461.838"/>
<polygon fill="#0f766e" stroke="#0f766e" points="2173.88,-461.837 2171.25,-454.338 2168.63,-461.838 2173.88,-461.837"/>
<text text-anchor="middle" x="1744.08" y="-483" font-family="WenQuanYi Zen Hei" font-size="10.00" fill="#0f766e">AXI e2e</text>
</g>
<!-- soc&#45;&gt;conv -->
<g id="edge21" class="edge"><title>soc&#45;&gt;conv</title>
<path fill="none" stroke="#0f766e" stroke-width="1.7" d="M1387.33,-386.224C1387.33,-348.687 1387.33,-289 1387.33,-289 1387.33,-289 1985.09,-289 1985.09,-289"/>
<polygon fill="#0f766e" stroke="#0f766e" points="1985.09,-291.625 1992.59,-289 1985.09,-286.375 1985.09,-291.625"/>
<text text-anchor="middle" x="1618.1" y="-292" font-family="WenQuanYi Zen Hei" font-size="10.00" fill="#0f766e">多 epoch</text>
</g>
<!-- ub&#45;&gt;sys -->
<g id="edge17" class="edge"><title>ub&#45;&gt;sys</title>
<path fill="none" stroke="#0f766e" stroke-width="1.45" d="M1527,-386.248C1527,-369.535 1527,-352 1527,-352 1527,-352 1887,-352 1887,-352 1887,-352 1887,-378.748 1887,-378.748"/>
<polygon fill="#0f766e" stroke="#0f766e" points="1884.38,-378.748 1887,-386.248 1889.63,-378.748 1884.38,-378.748"/>
<text text-anchor="middle" x="1688.25" y="-355" font-family="WenQuanYi Zen Hei" font-size="10.00" fill="#0f766e">矩阵块</text>
</g>
<!-- ub&#45;&gt;vpu -->
<g id="edge18" class="edge"><title>ub&#45;&gt;vpu</title>
<path fill="none" stroke="#0f766e" stroke-width="1.45" d="M1594.04,-416C1594.04,-416 1616.26,-416 1616.26,-416"/>
<polygon fill="#0f766e" stroke="#0f766e" points="1616.26,-418.625 1623.76,-416 1616.26,-413.375 1616.26,-418.625"/>
<text text-anchor="middle" x="1615.15" y="-408" font-family="WenQuanYi Zen Hei" font-size="10.00" fill="#0f766e">训练数据</text>
</g>
<!-- sys&#45;&gt;vpu -->
<g id="edge19" class="edge"><title>sys&#45;&gt;vpu</title>
<path fill="none" stroke="#0f766e" stroke-width="1.45" d="M1812.69,-416C1812.69,-416 1789.6,-416 1789.6,-416"/>
<polygon fill="#0f766e" stroke="#0f766e" points="1789.6,-413.375 1782.1,-416 1789.6,-418.625 1789.6,-413.375"/>
<text text-anchor="middle" x="1801.14" y="-408" font-family="WenQuanYi Zen Hei" font-size="10.00" fill="#0f766e">中间结果</text>
</g>
<!-- sys&#45;&gt;fmax -->
<g id="edge27" class="edge"><title>sys&#45;&gt;fmax</title>
<path fill="none" stroke="#7c3aed" stroke-width="1.5" stroke-dasharray="5,2" d="M1887,-445.667C1887,-456.887 1887,-467 1887,-467 1887,-467 2432,-467 2432,-467 2432,-467 2432,-498.45 2432,-498.45"/>
<polygon fill="#7c3aed" stroke="#7c3aed" points="2429.38,-498.45 2432,-505.95 2434.63,-498.45 2429.38,-498.45"/>
</g>
<!-- e2e&#45;&gt;pass -->
<!-- e2e&#45;&gt;pass -->
<g id="edge24" class="edge"><title>e2e&#45;&gt;pass</title>
<path fill="none" stroke="#7c3aed" stroke-width="1.7" d="M2380.13,-405C2380.13,-405 2438.28,-405 2438.28,-405"/>
<polygon fill="#7c3aed" stroke="#7c3aed" points="2438.28,-407.625 2445.78,-405 2438.28,-402.375 2438.28,-407.625"/>
</g>
<!-- conv&#45;&gt;train -->
<g id="edge25" class="edge"><title>conv&#45;&gt;train</title>
<path fill="none" stroke="#7c3aed" stroke-width="1.7" d="M2076,-252.726C2076,-216.764 2076,-167 2076,-167 2076,-167 2396.16,-167 2396.16,-167"/>
<polygon fill="#7c3aed" stroke="#7c3aed" points="2396.16,-169.625 2403.66,-167 2396.16,-164.375 2396.16,-169.625"/>
</g>
<!-- refm&#45;&gt;e2e -->
<g id="edge22" class="edge"><title>refm&#45;&gt;e2e</title>
<path fill="none" stroke="#0f766e" stroke-width="1.45" d="M2271,-506.361C2271,-506.361 2271,-461.53 2271,-461.53"/>
<polygon fill="#0f766e" stroke="#0f766e" points="2273.63,-461.53 2271,-454.03 2268.38,-461.53 2273.63,-461.53"/>
</g>
<!-- bugs&#45;&gt;conv -->
<g id="edge23" class="edge"><title>bugs&#45;&gt;conv</title>
<path fill="none" stroke="#0f766e" stroke-width="1.45" stroke-dasharray="5,2" d="M2039.17,-378.925C2039.17,-378.925 2039.17,-332.527 2039.17,-332.527"/>
<polygon fill="#0f766e" stroke="#0f766e" points="2041.79,-332.527 2039.17,-325.027 2036.54,-332.527 2041.79,-332.527"/>
</g>
<!-- bugs&#45;&gt;scope -->
<g id="edge28" class="edge"><title>bugs&#45;&gt;scope</title>
<path fill="none" stroke="#7c3aed" stroke-width="1.5" stroke-dasharray="5,2" d="M2085.58,-378.936C2085.58,-371.026 2085.58,-365 2085.58,-365 2085.58,-365 2411.38,-365 2411.38,-365 2411.38,-365 2411.38,-330.942 2411.38,-330.942"/>
<polygon fill="#7c3aed" stroke="#7c3aed" points="2414,-330.942 2411.38,-323.442 2408.75,-330.942 2414,-330.942"/>
</g>
<!-- train&#45;&gt;xor -->
<g id="edge26" class="edge"><title>train&#45;&gt;xor</title>
<path fill="none" stroke="#7c3aed" stroke-width="1.6" d="M2469,-134.444C2469,-134.444 2469,-89.3598 2469,-89.3598"/>
<polygon fill="#7c3aed" stroke="#7c3aed" points="2471.63,-89.3597 2469,-81.8598 2466.38,-89.3598 2471.63,-89.3597"/>
</g>
</g>
</svg>
