<?xml version="1.0" encoding="UTF-8" standalone="no"?>
<!DOCTYPE svg PUBLIC "-//W3C//DTD SVG 1.1//EN"
 "http://www.w3.org/Graphics/SVG/1.1/DTD/svg11.dtd">
<!-- Generated by graphviz version 2.30.1 (20201013.1554)
 -->
<!-- Title: TinyTPUSoC_ZH Pages: 1 -->
<svg width="1443pt" height="481pt"
 viewBox="0.00 0.00 1443.44 481.44" xmlns="http://www.w3.org/2000/svg" xmlns:xlink="http://www.w3.org/1999/xlink">
<g id="graph0" class="graph" transform="scale(1 1) rotate(0) translate(18.72 462.72)">
<title>TinyTPUSoC_ZH</title>
<polygon fill="#fbfaf6" stroke="#fbfaf6" points="-18.72,19.72 -18.72,-462.72 1425.72,-462.72 1425.72,19.72 -18.72,19.72"/>
<g id="clust2" class="cluster"><title>cluster_soc</title>
<path fill="#f6f1e8" stroke="#1f2937" stroke-width="1.5" d="M213,-82C213,-82 1193,-82 1193,-82 1199,-82 1205,-88 1205,-94 1205,-94 1205,-424 1205,-424 1205,-430 1199,-436 1193,-436 1193,-436 213,-436 213,-436 207,-436 201,-430 201,-424 201,-424 201,-94 201,-94 201,-88 207,-82 213,-82"/>
<text text-anchor="middle" x="254.5" y="-419.2" font-family="WenQuanYi Zen Hei" font-size="16.00">tpu_soc 顶层</text>
</g>
<g id="clust3" class="cluster"><title>cluster_frontend</title>
<path fill="#fff6de" stroke="#b7791f" stroke-width="1.3" d="M221,-90C221,-90 767,-90 767,-90 773,-90 779,-96 779,-102 779,-102 779,-380 779,-380 779,-386 773,-392 767,-392 767,-392 221,-392 221,-392 215,-392 209,-386 209,-380 209,-380 209,-102 209,-102 209,-96 215,-90 221,-90"/>
<text text-anchor="middle" x="276" y="-375.2" font-family="WenQuanYi Zen Hei" font-size="16.00">tpu_frontend_axil</text>
</g>
<g id="clust7" class="cluster"><title>cluster_core</title>
<path fill="#eaf1fb" stroke="#2c5282" stroke-width="1.3" d="M848,-192C848,-192 1185,-192 1185,-192 1191,-192 1197,-198 1197,-204 1197,-204 1197,-380 1197,-380 1197,-386 1191,-392 1185,-392 1185,-392 848,-392 848,-392 842,-392 836,-386 836,-380 836,-380 836,-204 836,-204 836,-198 842,-192 848,-192"/>
<text text-anchor="middle" x="873" y="-375.2" font-family="WenQuanYi Zen Hei" font-size="16.00">tpu Core</text>
</g>
<!-- host -->
<g id="node1" class="node"><title>host</title>
<path fill="#f7e7d0" stroke="#2e3a46" stroke-width="1.2" d="M132,-302C132,-302 12,-302 12,-302 6,-302 0,-296 0,-290 0,-290 0,-258 0,-258 0,-252 6,-246 12,-246 12,-246 132,-246 132,-246 138,-246 144,-252 144,-258 144,-258 144,-290 144,-290 144,-296 138,-302 132,-302"/>
<text text-anchor="middle" x="72" y="-277.6" font-family="WenQuanYi Zen Hei" font-size="13.00">主机 / PS</text>
<text text-anchor="middle" x="72" y="-263.6" font-family="WenQuanYi Zen Hei" font-size="13.00">AXI&#45;Lite</text>
</g>
<!-- compiler -->
<g id="node2" class="node"><title>compiler</title>
<path fill="#f3efe4" stroke="#2e3a46" stroke-width="1.2" d="M132,-154C132,-154 12,-154 12,-154 6,-154 0,-148 0,-142 0,-142 0,-110 0,-110 0,-104 6,-98 12,-98 12,-98 132,-98 132,-98 138,-98 144,-104 144,-110 144,-110 144,-142 144,-142 144,-148 138,-154 132,-154"/>
<text text-anchor="middle" x="72" y="-129.6" font-family="WenQuanYi Zen Hei" font-size="13.00">编译器</text>
<text text-anchor="middle" x="72" y="-115.6" font-family="WenQuanYi Zen Hei" font-size="13.00">schedule / imem</text>
</g>
<!-- note -->
<g id="node3" class="node"><title>note</title>
<path fill="#f1f5f9" stroke="#7b8794" stroke-width="1.1" stroke-dasharray="5,2" d="M132,-56C132,-56 12,-56 12,-56 6,-56 0,-50 0,-44 0,-44 0,-12 0,-12 0,-6 6,-0 12,-0 12,-0 132,-0 132,-0 138,-0 144,-6 144,-12 144,-12 144,-44 144,-44 144,-50 138,-56 132,-56"/>
<text text-anchor="middle" x="72" y="-31.6" font-family="WenQuanYi Zen Hei" font-size="13.00">原型边界</text>
<text text-anchor="middle" x="72" y="-17.6" font-family="WenQuanYi Zen Hei" font-size="13.00">无 IRQ / DMA</text>
</g>
<!-- sys_obs -->
<g id="node4" class="node"><title>sys_obs</title>
<path fill="#e8f3eb" stroke="#2e3a46" stroke-width="1.2" d="M1394,-358C1394,-358 1274,-358 1274,-358 1268,-358 1262,-352 1262,-346 1262,-346 1262,-314 1262,-314 1262,-308 1268,-302 1274,-302 1274,-302 1394,-302 1394,-302 1400,-302 1406,-308 1406,-314 1406,-314 1406,-346 1406,-346 1406,-352 1400,-358 1394,-358"/>
<text text-anchor="middle" x="1334" y="-333.6" font-family="WenQuanYi Zen Hei" font-size="13.00">Sys 输出</text>
<text text-anchor="middle" x="1334" y="-319.6" font-family="WenQuanYi Zen Hei" font-size="13.00">sys_data / valid</text>
</g>
<!-- vpu_obs -->
<g id="node5" class="node"><title>vpu_obs</title>
<path fill="#e8f3eb" stroke="#2e3a46" stroke-width="1.2" d="M1394,-258C1394,-258 1274,-258 1274,-258 1268,-258 1262,-252 1262,-246 1262,-246 1262,-214 1262,-214 1262,-208 1268,-202 1274,-202 1274,-202 1394,-202 1394,-202 1400,-202 1406,-208 1406,-214 1406,-214 1406,-246 1406,-246 1406,-252 1400,-258 1394,-258"/>
<text text-anchor="middle" x="1334" y="-233.6" font-family="WenQuanYi Zen Hei" font-size="13.00">VPU 输出</text>
<text text-anchor="middle" x="1334" y="-219.6" font-family="WenQuanYi Zen Hei" font-size="13.00">vpu_data / valid</text>
</g>
<!-- axil -->
<g id="node6" class="node"><title>axil</title>
<path fill="#fffdf7" stroke="#2e3a46" stroke-width="1.2" d="M374.5,-309.5C374.5,-309.5 229.5,-309.5 229.5,-309.5 223.5,-309.5 217.5,-303.5 217.5,-297.5 217.5,-297.5 217.5,-250.5 217.5,-250.5 217.5,-244.5 223.5,-238.5 229.5,-238.5 229.5,-238.5 374.5,-238.5 374.5,-238.5 380.5,-238.5 386.5,-244.5 386.5,-250.5 386.5,-250.5 386.5,-297.5 386.5,-297.5 386.5,-303.5 380.5,-309.5 374.5,-309.5"/>
<text text-anchor="middle" x="302" y="-284.6" font-family="WenQuanYi Zen Hei" font-size="13.00">AXI&#45;Lite / CSR</text>
<text text-anchor="middle" x="302" y="-270.6" font-family="WenQuanYi Zen Hei" font-size="13.00">控制 状态</text>
<text text-anchor="middle" x="302" y="-256.6" font-family="WenQuanYi Zen Hei" font-size="13.00">UB / IMEM / 参数</text>
</g>
<!-- params -->
<g id="node7" class="node"><title>params</title>
<path fill="#fffdf7" stroke="#2e3a46" stroke-width="1.2" d="M563.5,-358C563.5,-358 472.5,-358 472.5,-358 466.5,-358 460.5,-352 460.5,-346 460.5,-346 460.5,-310 460.5,-310 460.5,-304 466.5,-298 472.5,-298 472.5,-298 563.5,-298 563.5,-298 569.5,-298 575.5,-304 575.5,-310 575.5,-310 575.5,-346 575.5,-346 575.5,-352 569.5,-358 563.5,-358"/>
<text text-anchor="middle" x="518" y="-338.6" font-family="WenQuanYi Zen Hei" font-size="13.00">参数</text>
<text text-anchor="middle" x="518" y="-324.6" font-family="WenQuanYi Zen Hei" font-size="13.00">leak inv lr</text>
<text text-anchor="middle" x="518" y="-310.6" font-family="WenQuanYi Zen Hei" font-size="13.00">pathway</text>
</g>
<!-- seq -->
<g id="node8" class="node"><title>seq</title>
<path fill="#fffdf7" stroke="#2e3a46" stroke-width="1.2" d="M563.5,-256C563.5,-256 472.5,-256 472.5,-256 466.5,-256 460.5,-250 460.5,-244 460.5,-244 460.5,-208 460.5,-208 460.5,-202 466.5,-196 472.5,-196 472.5,-196 563.5,-196 563.5,-196 569.5,-196 575.5,-202 575.5,-208 575.5,-208 575.5,-244 575.5,-244 575.5,-250 569.5,-256 563.5,-256"/>
<text text-anchor="middle" x="518" y="-236.6" font-family="WenQuanYi Zen Hei" font-size="13.00">时序</text>
<text text-anchor="middle" x="518" y="-222.6" font-family="WenQuanYi Zen Hei" font-size="13.00">start step</text>
<text text-anchor="middle" x="518" y="-208.6" font-family="WenQuanYi Zen Hei" font-size="13.00">busy run</text>
</g>
<!-- imem -->
<g id="node9" class="node"><title>imem</title>
<path fill="#fffdf7" stroke="#2e3a46" stroke-width="1.2" d="M562,-154C562,-154 474,-154 474,-154 468,-154 462,-148 462,-142 462,-142 462,-110 462,-110 462,-104 468,-98 474,-98 474,-98 562,-98 562,-98 568,-98 574,-104 574,-110 574,-110 574,-142 574,-142 574,-148 568,-154 562,-154"/>
<text text-anchor="middle" x="518" y="-129.6" font-family="WenQuanYi Zen Hei" font-size="13.00">指令存储</text>
<text text-anchor="middle" x="518" y="-115.6" font-family="WenQuanYi Zen Hei" font-size="13.00">64 x 32</text>
</g>
<!-- cu -->
<g id="node10" class="node"><title>cu</title>
<path fill="#fffdf7" stroke="#2e3a46" stroke-width="1.2" d="M759,-258C759,-258 661,-258 661,-258 655,-258 649,-252 649,-246 649,-246 649,-210 649,-210 649,-204 655,-198 661,-198 661,-198 759,-198 759,-198 765,-198 771,-204 771,-210 771,-210 771,-246 771,-246 771,-252 765,-258 759,-258"/>
<text text-anchor="middle" x="710" y="-238.6" font-family="WenQuanYi Zen Hei" font-size="13.00">解码</text>
<text text-anchor="middle" x="710" y="-224.6" font-family="WenQuanYi Zen Hei" font-size="13.00">switch ub_rd</text>
<text text-anchor="middle" x="710" y="-210.6" font-family="WenQuanYi Zen Hei" font-size="13.00">ub_wr_host</text>
</g>
<!-- ctrl -->
<g id="node11" class="node"><title>ctrl</title>
<path fill="#fbfdff" stroke="#2e3a46" stroke-width="1.2" d="M962,-260C962,-260 860,-260 860,-260 854,-260 848,-254 848,-248 848,-248 848,-212 848,-212 848,-206 854,-200 860,-200 860,-200 962,-200 962,-200 968,-200 974,-206 974,-212 974,-212 974,-248 974,-248 974,-254 968,-260 962,-260"/>
<text text-anchor="middle" x="911" y="-240.6" font-family="WenQuanYi Zen Hei" font-size="13.00">核心控制</text>
<text text-anchor="middle" x="911" y="-226.6" font-family="WenQuanYi Zen Hei" font-size="13.00">switch ub_ptr</text>
<text text-anchor="middle" x="911" y="-212.6" font-family="WenQuanYi Zen Hei" font-size="13.00">params</text>
</g>
<!-- ub -->
<g id="node12" class="node"><title>ub</title>
<path fill="#fbfdff" stroke="#2e3a46" stroke-width="1.2" d="M965.5,-358C965.5,-358 856.5,-358 856.5,-358 850.5,-358 844.5,-352 844.5,-346 844.5,-346 844.5,-314 844.5,-314 844.5,-308 850.5,-302 856.5,-302 856.5,-302 965.5,-302 965.5,-302 971.5,-302 977.5,-308 977.5,-314 977.5,-314 977.5,-346 977.5,-346 977.5,-352 971.5,-358 965.5,-358"/>
<text text-anchor="middle" x="911" y="-333.6" font-family="WenQuanYi Zen Hei" font-size="13.00">统一缓冲</text>
<text text-anchor="middle" x="911" y="-319.6" font-family="WenQuanYi Zen Hei" font-size="13.00">host 写入 / 数据</text>
</g>
<!-- sys -->
<g id="node13" class="node"><title>sys</title>
<path fill="#fbfdff" stroke="#2e3a46" stroke-width="1.2" d="M1164,-358C1164,-358 1076,-358 1076,-358 1070,-358 1064,-352 1064,-346 1064,-346 1064,-314 1064,-314 1064,-308 1070,-302 1076,-302 1076,-302 1164,-302 1164,-302 1170,-302 1176,-308 1176,-314 1176,-314 1176,-346 1176,-346 1176,-352 1170,-358 1164,-358"/>
<text text-anchor="middle" x="1120" y="-333.6" font-family="WenQuanYi Zen Hei" font-size="13.00">Systolic</text>
<text text-anchor="middle" x="1120" y="-319.6" font-family="WenQuanYi Zen Hei" font-size="13.00">矩阵乘法</text>
</g>
<!-- vpu -->
<g id="node14" class="node"><title>vpu</title>
<path fill="#fbfdff" stroke="#2e3a46" stroke-width="1.2" d="M1176.5,-260C1176.5,-260 1063.5,-260 1063.5,-260 1057.5,-260 1051.5,-254 1051.5,-248 1051.5,-248 1051.5,-212 1051.5,-212 1051.5,-206 1057.5,-200 1063.5,-200 1063.5,-200 1176.5,-200 1176.5,-200 1182.5,-200 1188.5,-206 1188.5,-212 1188.5,-212 1188.5,-248 1188.5,-248 1188.5,-254 1182.5,-260 1176.5,-260"/>
<text text-anchor="middle" x="1120" y="-240.6" font-family="WenQuanYi Zen Hei" font-size="13.00">VPU 训练</text>
<text text-anchor="middle" x="1120" y="-226.6" font-family="WenQuanYi Zen Hei" font-size="13.00">激活 损失 梯度</text>
<text text-anchor="middle" x="1120" y="-212.6" font-family="WenQuanYi Zen Hei" font-size="13.00">参数更新</text>
</g>
<!-- host&#45;&gt;compiler -->
<!-- host&#45;&gt;axil -->
<g id="edge8" class="edge"><title>host:e&#45;&gt;axil:w</title>
<path fill="none" stroke="#7b4f1d" stroke-width="1.8" d="M144,-274C144,-274 209.8,-274 209.8,-274"/>
<polygon fill="#7b4f1d" stroke="#7b4f1d" points="209.8,-276.52 217,-274 209.8,-271.48 209.8,-276.52"/>
<text text-anchor="middle" x="165.9" y="-267.2" font-family="WenQuanYi Zen Hei" font-size="8.50" fill="#7b4f1d">MMIO</text>
</g>
<!-- compiler&#45;&gt;note -->
<!-- compiler&#45;&gt;imem -->
<g id="edge9" class="edge"><title>compiler:e&#45;&gt;imem:w</title>
<path fill="none" stroke="#7b4f1d" stroke-width="1.7" d="M144,-116.667C144,-116.667 454.8,-116.667 454.8,-116.667"/>
<polygon fill="#7b4f1d" stroke="#7b4f1d" points="454.8,-119.187 462,-116.667 454.8,-114.147 454.8,-119.187"/>
<text text-anchor="middle" x="290.9" y="-109.867" font-family="WenQuanYi Zen Hei" font-size="8.50" fill="#7b4f1d">指令</text>
</g>
<!-- sys_obs&#45;&gt;vpu_obs -->
<!-- axil&#45;&gt;params -->
<g id="edge10" class="edge"><title>axil:e&#45;&gt;params:w</title>
<path fill="none" stroke="#2563eb" stroke-width="1.5" d="M387,-303.625C387,-303.625 452.8,-303.625 452.8,-303.625"/>
<polygon fill="#2563eb" stroke="#2563eb" points="452.8,-306.145 460,-303.625 452.8,-301.105 452.8,-306.145"/>
</g>
<!-- axil&#45;&gt;seq -->
<g id="edge11" class="edge"><title>axil:e&#45;&gt;seq:w</title>
<path fill="none" stroke="#2563eb" stroke-width="1.5" d="M387,-247.375C387,-247.375 452.8,-247.375 452.8,-247.375"/>
<polygon fill="#2563eb" stroke="#2563eb" points="452.8,-249.895 460,-247.375 452.8,-244.855 452.8,-249.895"/>
<text text-anchor="middle" x="409.9" y="-240.575" font-family="WenQuanYi Zen Hei" font-size="8.50" fill="#2563eb">CTRL</text>
</g>
<!-- axil&#45;&gt;imem -->
<g id="edge12" class="edge"><title>axil:s&#45;&gt;imem:w</title>
<path fill="none" stroke="#2563eb" stroke-width="1.5" d="M302,-238C302,-238 302,-135.333 302,-135.333 302,-135.333 454.8,-135.333 454.8,-135.333"/>
<polygon fill="#2563eb" stroke="#2563eb" points="454.8,-137.853 462,-135.333 454.8,-132.813 454.8,-137.853"/>
</g>
<!-- axil&#45;&gt;ub -->
<g id="edge13" class="edge"><title>axil:e&#45;&gt;ub:w</title>
<path fill="none" stroke="#c2410c" stroke-width="1.8" d="M387,-285.333C387,-285.333 880,-285.333 880,-285.333 880,-285.333 880,-322.8 880,-322.8"/>
<polygon fill="#c2410c" stroke="#c2410c" points="877.48,-322.8 880,-330 882.52,-322.8 877.48,-322.8"/>
<text text-anchor="middle" x="633.733" y="-278.533" font-family="WenQuanYi Zen Hei" font-size="8.50" fill="#c2410c">Host 装载</text>
</g>
<!-- params&#45;&gt;seq -->
<!-- params&#45;&gt;ctrl -->
<g id="edge17" class="edge"><title>params:e&#45;&gt;ctrl:nw</title>
<path fill="none" stroke="#2563eb" stroke-width="1.5" d="M576,-330C576,-330 808,-330 808,-330 808,-330 808,-238.667 808,-238.667 808,-238.667 840.8,-238.667 840.8,-238.667"/>
<polygon fill="#2563eb" stroke="#2563eb" points="840.8,-241.187 848,-238.667 840.8,-236.147 840.8,-241.187"/>
</g>
<!-- seq&#45;&gt;imem -->
<!-- seq&#45;&gt;cu -->
<g id="edge15" class="edge"><title>seq:e&#45;&gt;cu:w</title>
<path fill="none" stroke="#2563eb" stroke-width="1.5" d="M576,-227C576,-227 641.8,-227 641.8,-227"/>
<polygon fill="#2563eb" stroke="#2563eb" points="641.8,-229.52 649,-227 641.8,-224.48 641.8,-229.52"/>
</g>
<!-- imem&#45;&gt;seq -->
<g id="edge14" class="edge"><title>imem:n&#45;&gt;seq:s</title>
<path fill="none" stroke="#2563eb" stroke-width="1.5" d="M537,-154C537,-154 537,-188.8 537,-188.8"/>
<polygon fill="#2563eb" stroke="#2563eb" points="534.48,-188.8 537,-196 539.52,-188.8 534.48,-188.8"/>
</g>
<!-- cu&#45;&gt;ctrl -->
<g id="edge16" class="edge"><title>cu:e&#45;&gt;ctrl:w</title>
<path fill="none" stroke="#2563eb" stroke-width="1.5" d="M771,-219.333C771,-219.333 840.8,-219.333 840.8,-219.333"/>
<polygon fill="#2563eb" stroke="#2563eb" points="840.8,-221.853 848,-219.333 840.8,-216.813 840.8,-221.853"/>
<text text-anchor="middle" x="797.4" y="-212.533" font-family="WenQuanYi Zen Hei" font-size="8.50" fill="#2563eb">控制</text>
</g>
<!-- ctrl&#45;&gt;ub -->
<!-- ctrl&#45;&gt;ub -->
<g id="edge18" class="edge"><title>ctrl:e&#45;&gt;ub:w</title>
<path fill="none" stroke="#0f766e" stroke-width="1.5" d="M943,-230C943,-230 943,-322.8 943,-322.8"/>
<polygon fill="#0f766e" stroke="#0f766e" points="940.48,-322.8 943,-330 945.52,-322.8 940.48,-322.8"/>
</g>
<!-- ub&#45;&gt;sys -->
<g id="edge19" class="edge"><title>ub:e&#45;&gt;sys:w</title>
<path fill="none" stroke="#0f766e" stroke-width="1.5" d="M978,-344C978,-344 1056.8,-344 1056.8,-344"/>
<polygon fill="#0f766e" stroke="#0f766e" points="1056.8,-346.52 1064,-344 1056.8,-341.48 1056.8,-346.52"/>
<text text-anchor="middle" x="1004.9" y="-337.2" font-family="WenQuanYi Zen Hei" font-size="8.50" fill="#0f766e">矩阵块</text>
</g>
<!-- ub&#45;&gt;vpu -->
<g id="edge20" class="edge"><title>ub:e&#45;&gt;vpu:w</title>
<path fill="none" stroke="#0f766e" stroke-width="1.5" d="M978,-316C978,-316 1055,-316 1055,-316 1055,-316 1055,-237.2 1055,-237.2"/>
<polygon fill="#0f766e" stroke="#0f766e" points="1057.52,-237.2 1055,-230 1052.48,-237.2 1057.52,-237.2"/>
<text text-anchor="middle" x="1038" y="-308.3" font-family="WenQuanYi Zen Hei" font-size="8.50" fill="#0f766e">训练数据</text>
</g>
<!-- sys&#45;&gt;vpu -->
<!-- sys&#45;&gt;vpu -->
<g id="edge21" class="edge"><title>sys:s&#45;&gt;vpu:n</title>
<path fill="none" stroke="#0f766e" stroke-width="1.5" d="M1139,-302C1139,-302 1139,-267.2 1139,-267.2"/>
<polygon fill="#0f766e" stroke="#0f766e" points="1141.52,-267.2 1139,-260 1136.48,-267.2 1141.52,-267.2"/>
</g>
<!-- sys&#45;&gt;sys_obs -->
<g id="edge24" class="edge"><title>sys:e&#45;&gt;sys_obs:w</title>
<path fill="none" stroke="#15803d" stroke-width="1.7" d="M1176,-330C1176,-330 1254.8,-330 1254.8,-330"/>
<polygon fill="#15803d" stroke="#15803d" points="1254.8,-332.52 1262,-330 1254.8,-327.48 1254.8,-332.52"/>
</g>
<!-- vpu&#45;&gt;ub -->
<g id="edge22" class="edge"><title>vpu:w&#45;&gt;ub:s</title>
<path fill="none" stroke="#c2410c" stroke-width="1.5" d="M1058,-230C1058,-230 1058,-330 1058,-330 1058,-330 918.2,-330 918.2,-330"/>
<polygon fill="#c2410c" stroke="#c2410c" points="918.2,-327.48 911,-330 918.2,-332.52 918.2,-327.48"/>
</g>
<!-- vpu&#45;&gt;seq -->
<g id="edge23" class="edge"><title>vpu:w&#45;&gt;seq:n</title>
<path fill="none" stroke="#15803d" stroke-width="1.5" stroke-dasharray="5,2" d="M1061,-230C1061,-230 1061,-272.667 1061,-272.667 1061,-272.667 538,-272.667 538,-272.667 538,-272.667 538,-263.2 538,-263.2"/>
<polygon fill="#15803d" stroke="#15803d" points="540.52,-263.2 538,-256 535.48,-263.2 540.52,-263.2"/>
<text text-anchor="middle" x="807.6" y="-265.867" font-family="WenQuanYi Zen Hei" font-size="8.50" fill="#15803d">完成</text>
</g>
<!-- vpu&#45;&gt;vpu_obs -->
<g id="edge25" class="edge"><title>vpu:e&#45;&gt;vpu_obs:w</title>
<path fill="none" stroke="#15803d" stroke-width="1.7" d="M1189,-230C1189,-230 1254.8,-230 1254.8,-230"/>
<polygon fill="#15803d" stroke="#15803d" points="1254.8,-232.52 1262,-230 1254.8,-227.48 1254.8,-232.52"/>
</g>
</g>
</svg>
